<mxfile host="app.diagrams.net" modified="2023-10-12T05:08:12.640Z" agent="Mozilla/5.0 (Macintosh; Intel Mac OS X 10.15; rv:109.0) Gecko/20100101 Firefox/115.0" etag="eliu8JTxjvtZ0WFnJbb2" version="22.0.4" type="device">
  <diagram name="Page-1" id="iQPOzWm-GH2rnMNFBipy">
    <mxGraphModel dx="896" dy="481" grid="1" gridSize="5" guides="1" tooltips="1" connect="1" arrows="1" fold="1" page="1" pageScale="1" pageWidth="2800" pageHeight="1300" math="0" shadow="0">
      <root>
        <mxCell id="0" />
        <mxCell id="1" parent="0" />
        <mxCell id="wpcL7Qo-BOGiDXtRRDBN-13" style="rounded=0;orthogonalLoop=1;jettySize=auto;html=1;entryX=0;entryY=0.5;entryDx=0;entryDy=0;strokeWidth=2;exitX=1;exitY=0.25;exitDx=0;exitDy=0;edgeStyle=orthogonalEdgeStyle;" parent="1" source="wpcL7Qo-BOGiDXtRRDBN-1" target="wpcL7Qo-BOGiDXtRRDBN-8" edge="1">
          <mxGeometry relative="1" as="geometry">
            <mxPoint x="170.01" y="754.89" as="sourcePoint" />
          </mxGeometry>
        </mxCell>
        <mxCell id="wpcL7Qo-BOGiDXtRRDBN-3" value="&lt;b&gt;Input image 2&lt;/b&gt;" style="text;html=1;strokeColor=none;fillColor=none;align=right;verticalAlign=middle;whiteSpace=wrap;rounded=0;" parent="1" vertex="1">
          <mxGeometry x="110.00999999999999" y="864.89" width="60" height="30" as="geometry" />
        </mxCell>
        <mxCell id="wpcL7Qo-BOGiDXtRRDBN-14" style="rounded=0;orthogonalLoop=1;jettySize=auto;html=1;exitX=1;exitY=0.75;exitDx=0;exitDy=0;strokeWidth=2;entryX=0;entryY=0.5;entryDx=0;entryDy=0;edgeStyle=orthogonalEdgeStyle;" parent="1" source="wpcL7Qo-BOGiDXtRRDBN-5" target="wpcL7Qo-BOGiDXtRRDBN-8" edge="1">
          <mxGeometry relative="1" as="geometry">
            <mxPoint x="170.01" y="544.89" as="sourcePoint" />
            <mxPoint x="65.00999999999999" y="639.89" as="targetPoint" />
          </mxGeometry>
        </mxCell>
        <mxCell id="wpcL7Qo-BOGiDXtRRDBN-6" value="Input image 1" style="text;html=1;strokeColor=none;fillColor=none;align=right;verticalAlign=middle;whiteSpace=wrap;rounded=0;fontStyle=1" parent="1" vertex="1">
          <mxGeometry x="110.00999999999999" y="414.89" width="60" height="30" as="geometry" />
        </mxCell>
        <mxCell id="wpcL7Qo-BOGiDXtRRDBN-20" style="edgeStyle=orthogonalEdgeStyle;rounded=0;orthogonalLoop=1;jettySize=auto;html=1;fillColor=#ffe6cc;strokeColor=#D79B00;strokeWidth=2;" parent="1" edge="1">
          <mxGeometry relative="1" as="geometry">
            <mxPoint x="45.00999999999999" y="149.8900000000001" as="sourcePoint" />
            <mxPoint x="85.00999999999999" y="149.8900000000001" as="targetPoint" />
            <Array as="points">
              <mxPoint x="75.00999999999999" y="149.8900000000001" />
              <mxPoint x="75.00999999999999" y="149.8900000000001" />
            </Array>
          </mxGeometry>
        </mxCell>
        <mxCell id="wpcL7Qo-BOGiDXtRRDBN-21" value="&lt;font&gt;3x3 conv, Tanh&lt;/font&gt;" style="text;html=1;strokeColor=none;fillColor=none;align=center;verticalAlign=middle;whiteSpace=wrap;rounded=0;fontColor=#D79B00;" parent="1" vertex="1">
          <mxGeometry x="90.00999999999999" y="134.8900000000001" width="105" height="30" as="geometry" />
        </mxCell>
        <mxCell id="wpcL7Qo-BOGiDXtRRDBN-24" style="edgeStyle=orthogonalEdgeStyle;rounded=0;orthogonalLoop=1;jettySize=auto;html=1;entryX=0;entryY=0.5;entryDx=0;entryDy=0;strokeWidth=2;fillColor=#e6d0de;strokeColor=#996185;gradientColor=#d5739d;exitX=1;exitY=0.25;exitDx=0;exitDy=0;" parent="1" source="wpcL7Qo-BOGiDXtRRDBN-5" target="wpcL7Qo-BOGiDXtRRDBN-23" edge="1">
          <mxGeometry relative="1" as="geometry" />
        </mxCell>
        <mxCell id="wpcL7Qo-BOGiDXtRRDBN-26" style="edgeStyle=orthogonalEdgeStyle;rounded=0;orthogonalLoop=1;jettySize=auto;html=1;strokeWidth=2;fillColor=#e6d0de;strokeColor=#996185;gradientColor=#d5739d;" parent="1" edge="1">
          <mxGeometry relative="1" as="geometry">
            <mxPoint x="45.00999999999999" y="129.8900000000001" as="sourcePoint" />
            <mxPoint x="85.00999999999999" y="129.8900000000001" as="targetPoint" />
            <Array as="points">
              <mxPoint x="60.00999999999999" y="129.8900000000001" />
              <mxPoint x="60.00999999999999" y="129.8900000000001" />
            </Array>
          </mxGeometry>
        </mxCell>
        <mxCell id="wpcL7Qo-BOGiDXtRRDBN-29" value="3x3 conv, LeakyReLU(0.01)" style="text;html=1;strokeColor=none;fillColor=none;align=center;verticalAlign=middle;whiteSpace=wrap;rounded=0;fontColor=#996185;" parent="1" vertex="1">
          <mxGeometry x="95.00999999999999" y="114.8900000000001" width="165" height="30" as="geometry" />
        </mxCell>
        <mxCell id="wpcL7Qo-BOGiDXtRRDBN-33" value="" style="group" parent="1" vertex="1" connectable="0">
          <mxGeometry x="220.01" y="355" width="80" height="355.11" as="geometry" />
        </mxCell>
        <mxCell id="wpcL7Qo-BOGiDXtRRDBN-36" value="" style="group" parent="wpcL7Qo-BOGiDXtRRDBN-33" vertex="1" connectable="0">
          <mxGeometry x="50" y="170.11" width="30" height="185" as="geometry" />
        </mxCell>
        <mxCell id="wpcL7Qo-BOGiDXtRRDBN-8" value="" style="rounded=0;whiteSpace=wrap;html=1;fillColor=#1ba1e2;strokeColor=#006EAF;fontColor=#ffffff;" parent="wpcL7Qo-BOGiDXtRRDBN-36" vertex="1">
          <mxGeometry x="10" y="15" width="5" height="160" as="geometry" />
        </mxCell>
        <mxCell id="wpcL7Qo-BOGiDXtRRDBN-9" value="" style="rounded=0;whiteSpace=wrap;html=1;fillColor=#1ba1e2;strokeColor=#006EAF;fontColor=#ffffff;" parent="wpcL7Qo-BOGiDXtRRDBN-36" vertex="1">
          <mxGeometry x="15" y="15" width="5" height="160" as="geometry" />
        </mxCell>
        <mxCell id="wpcL7Qo-BOGiDXtRRDBN-10" value="6" style="text;html=1;align=center;verticalAlign=middle;resizable=0;points=[];autosize=1;strokeColor=none;fillColor=none;" parent="wpcL7Qo-BOGiDXtRRDBN-36" vertex="1">
          <mxGeometry y="-10.11" width="30" height="30" as="geometry" />
        </mxCell>
        <mxCell id="wpcL7Qo-BOGiDXtRRDBN-34" value="" style="group" parent="1" vertex="1" connectable="0">
          <mxGeometry x="162.01" y="389.89" width="30" height="185" as="geometry" />
        </mxCell>
        <mxCell id="wpcL7Qo-BOGiDXtRRDBN-5" value="" style="rounded=0;whiteSpace=wrap;html=1;fillColor=#1ba1e2;strokeColor=#006EAF;fontColor=#ffffff;" parent="wpcL7Qo-BOGiDXtRRDBN-34" vertex="1">
          <mxGeometry x="13" y="25" width="5" height="160" as="geometry" />
        </mxCell>
        <mxCell id="wpcL7Qo-BOGiDXtRRDBN-7" value="3" style="text;html=1;align=center;verticalAlign=middle;resizable=0;points=[];autosize=1;strokeColor=none;fillColor=none;" parent="wpcL7Qo-BOGiDXtRRDBN-34" vertex="1">
          <mxGeometry width="30" height="30" as="geometry" />
        </mxCell>
        <mxCell id="wpcL7Qo-BOGiDXtRRDBN-35" value="" style="group" parent="1" vertex="1" connectable="0">
          <mxGeometry x="162.01" y="709.89" width="30" height="185" as="geometry" />
        </mxCell>
        <mxCell id="wpcL7Qo-BOGiDXtRRDBN-1" value="" style="rounded=0;whiteSpace=wrap;html=1;fillColor=#1ba1e2;strokeColor=#006EAF;fontColor=#ffffff;" parent="wpcL7Qo-BOGiDXtRRDBN-35" vertex="1">
          <mxGeometry x="13" y="25" width="5" height="160" as="geometry" />
        </mxCell>
        <mxCell id="wpcL7Qo-BOGiDXtRRDBN-2" value="3" style="text;html=1;align=center;verticalAlign=middle;resizable=0;points=[];autosize=1;strokeColor=none;fillColor=none;" parent="wpcL7Qo-BOGiDXtRRDBN-35" vertex="1">
          <mxGeometry width="30" height="30" as="geometry" />
        </mxCell>
        <mxCell id="wpcL7Qo-BOGiDXtRRDBN-37" value="" style="group" parent="1" vertex="1" connectable="0">
          <mxGeometry x="260.01" y="229.89" width="60" height="185" as="geometry" />
        </mxCell>
        <mxCell id="wpcL7Qo-BOGiDXtRRDBN-38" value="" style="rounded=0;whiteSpace=wrap;html=1;fillColor=#1ba1e2;strokeColor=#006EAF;fontColor=#ffffff;" parent="wpcL7Qo-BOGiDXtRRDBN-37" vertex="1">
          <mxGeometry x="20" y="25" width="10" height="160" as="geometry" />
        </mxCell>
        <mxCell id="wpcL7Qo-BOGiDXtRRDBN-39" value="32" style="text;html=1;strokeColor=none;fillColor=none;align=center;verticalAlign=middle;whiteSpace=wrap;rounded=0;" parent="wpcL7Qo-BOGiDXtRRDBN-37" vertex="1">
          <mxGeometry x="-5" width="60" height="30" as="geometry" />
        </mxCell>
        <mxCell id="wpcL7Qo-BOGiDXtRRDBN-47" value="" style="group" parent="1" vertex="1" connectable="0">
          <mxGeometry x="300.01" y="229.89" width="60" height="185" as="geometry" />
        </mxCell>
        <mxCell id="wpcL7Qo-BOGiDXtRRDBN-48" value="" style="rounded=0;whiteSpace=wrap;html=1;fillColor=#1ba1e2;strokeColor=#006EAF;fontColor=#ffffff;" parent="wpcL7Qo-BOGiDXtRRDBN-47" vertex="1">
          <mxGeometry x="20" y="25" width="10" height="160" as="geometry" />
        </mxCell>
        <mxCell id="wpcL7Qo-BOGiDXtRRDBN-49" value="32" style="text;html=1;strokeColor=none;fillColor=none;align=center;verticalAlign=middle;whiteSpace=wrap;rounded=0;" parent="wpcL7Qo-BOGiDXtRRDBN-47" vertex="1">
          <mxGeometry x="-5" width="60" height="30" as="geometry" />
        </mxCell>
        <mxCell id="wpcL7Qo-BOGiDXtRRDBN-50" style="edgeStyle=orthogonalEdgeStyle;rounded=0;orthogonalLoop=1;jettySize=auto;html=1;fillColor=#e6d0de;gradientColor=#d5739d;strokeColor=#996185;strokeWidth=2;entryX=0;entryY=0.5;entryDx=0;entryDy=0;" parent="1" source="wpcL7Qo-BOGiDXtRRDBN-38" target="wpcL7Qo-BOGiDXtRRDBN-48" edge="1">
          <mxGeometry relative="1" as="geometry">
            <mxPoint x="280.01" y="334.89" as="targetPoint" />
          </mxGeometry>
        </mxCell>
        <mxCell id="wpcL7Qo-BOGiDXtRRDBN-46" style="edgeStyle=orthogonalEdgeStyle;rounded=0;orthogonalLoop=1;jettySize=auto;html=1;strokeWidth=2;fillColor=#e6d0de;gradientColor=#d5739d;strokeColor=#996185;entryX=0;entryY=0.5;entryDx=0;entryDy=0;" parent="1" source="wpcL7Qo-BOGiDXtRRDBN-23" target="wpcL7Qo-BOGiDXtRRDBN-38" edge="1">
          <mxGeometry relative="1" as="geometry">
            <mxPoint x="252.01" y="334.89" as="targetPoint" />
          </mxGeometry>
        </mxCell>
        <mxCell id="wpcL7Qo-BOGiDXtRRDBN-53" value="" style="group" parent="1" vertex="1" connectable="0">
          <mxGeometry x="220.01" y="870" width="60" height="185" as="geometry" />
        </mxCell>
        <mxCell id="wpcL7Qo-BOGiDXtRRDBN-54" value="" style="rounded=0;whiteSpace=wrap;html=1;fillColor=#1ba1e2;strokeColor=#006EAF;fontColor=#ffffff;" parent="wpcL7Qo-BOGiDXtRRDBN-53" vertex="1">
          <mxGeometry x="20" y="25" width="10" height="160" as="geometry" />
        </mxCell>
        <mxCell id="wpcL7Qo-BOGiDXtRRDBN-55" value="32" style="text;html=1;strokeColor=none;fillColor=none;align=center;verticalAlign=middle;whiteSpace=wrap;rounded=0;" parent="wpcL7Qo-BOGiDXtRRDBN-53" vertex="1">
          <mxGeometry x="-5" width="60" height="30" as="geometry" />
        </mxCell>
        <mxCell id="wpcL7Qo-BOGiDXtRRDBN-56" value="" style="group" parent="1" vertex="1" connectable="0">
          <mxGeometry x="260.01" y="870" width="60" height="185" as="geometry" />
        </mxCell>
        <mxCell id="wpcL7Qo-BOGiDXtRRDBN-57" value="" style="rounded=0;whiteSpace=wrap;html=1;fillColor=#1ba1e2;strokeColor=#006EAF;fontColor=#ffffff;" parent="wpcL7Qo-BOGiDXtRRDBN-56" vertex="1">
          <mxGeometry x="20" y="25" width="10" height="160" as="geometry" />
        </mxCell>
        <mxCell id="wpcL7Qo-BOGiDXtRRDBN-58" value="32" style="text;html=1;strokeColor=none;fillColor=none;align=center;verticalAlign=middle;whiteSpace=wrap;rounded=0;" parent="wpcL7Qo-BOGiDXtRRDBN-56" vertex="1">
          <mxGeometry x="-5" width="60" height="30" as="geometry" />
        </mxCell>
        <mxCell id="wpcL7Qo-BOGiDXtRRDBN-59" value="" style="group" parent="1" vertex="1" connectable="0">
          <mxGeometry x="300.01" y="870" width="60" height="185" as="geometry" />
        </mxCell>
        <mxCell id="wpcL7Qo-BOGiDXtRRDBN-60" value="" style="rounded=0;whiteSpace=wrap;html=1;fillColor=#1ba1e2;strokeColor=#006EAF;fontColor=#ffffff;" parent="wpcL7Qo-BOGiDXtRRDBN-59" vertex="1">
          <mxGeometry x="20" y="25" width="10" height="160" as="geometry" />
        </mxCell>
        <mxCell id="wpcL7Qo-BOGiDXtRRDBN-61" value="32" style="text;html=1;strokeColor=none;fillColor=none;align=center;verticalAlign=middle;whiteSpace=wrap;rounded=0;" parent="wpcL7Qo-BOGiDXtRRDBN-59" vertex="1">
          <mxGeometry x="-5" width="60" height="30" as="geometry" />
        </mxCell>
        <mxCell id="wpcL7Qo-BOGiDXtRRDBN-62" style="edgeStyle=orthogonalEdgeStyle;rounded=0;orthogonalLoop=1;jettySize=auto;html=1;fillColor=#e6d0de;gradientColor=#d5739d;strokeColor=#996185;strokeWidth=2;entryX=0;entryY=0.5;entryDx=0;entryDy=0;" parent="1" source="wpcL7Qo-BOGiDXtRRDBN-57" target="wpcL7Qo-BOGiDXtRRDBN-60" edge="1">
          <mxGeometry relative="1" as="geometry">
            <mxPoint x="280.01" y="975" as="targetPoint" />
          </mxGeometry>
        </mxCell>
        <mxCell id="wpcL7Qo-BOGiDXtRRDBN-63" style="edgeStyle=orthogonalEdgeStyle;rounded=0;orthogonalLoop=1;jettySize=auto;html=1;strokeWidth=2;fillColor=#e6d0de;gradientColor=#d5739d;strokeColor=#996185;entryX=0;entryY=0.5;entryDx=0;entryDy=0;" parent="1" source="wpcL7Qo-BOGiDXtRRDBN-54" target="wpcL7Qo-BOGiDXtRRDBN-57" edge="1">
          <mxGeometry relative="1" as="geometry">
            <mxPoint x="252.01" y="975" as="targetPoint" />
          </mxGeometry>
        </mxCell>
        <mxCell id="wpcL7Qo-BOGiDXtRRDBN-64" style="edgeStyle=orthogonalEdgeStyle;rounded=0;orthogonalLoop=1;jettySize=auto;html=1;exitX=1;exitY=0.75;exitDx=0;exitDy=0;fillColor=#e6d0de;gradientColor=#d5739d;strokeColor=#996185;strokeWidth=2;entryX=0;entryY=0.5;entryDx=0;entryDy=0;" parent="1" source="wpcL7Qo-BOGiDXtRRDBN-1" target="wpcL7Qo-BOGiDXtRRDBN-54" edge="1">
          <mxGeometry relative="1" as="geometry">
            <mxPoint x="240.01" y="815.3636842105265" as="targetPoint" />
          </mxGeometry>
        </mxCell>
        <mxCell id="wpcL7Qo-BOGiDXtRRDBN-66" value="" style="group" parent="1" vertex="1" connectable="0">
          <mxGeometry x="380.01" y="565" width="4394.99" height="445" as="geometry" />
        </mxCell>
        <mxCell id="wpcL7Qo-BOGiDXtRRDBN-131" value="" style="group" parent="wpcL7Qo-BOGiDXtRRDBN-66" vertex="1" connectable="0">
          <mxGeometry x="260" y="177.49999999999997" width="170" height="100" as="geometry" />
        </mxCell>
        <mxCell id="wpcL7Qo-BOGiDXtRRDBN-132" value="" style="group" parent="wpcL7Qo-BOGiDXtRRDBN-131" vertex="1" connectable="0">
          <mxGeometry width="170" height="100" as="geometry" />
        </mxCell>
        <mxCell id="wpcL7Qo-BOGiDXtRRDBN-133" value="" style="rounded=0;whiteSpace=wrap;html=1;fillColor=#1ba1e2;strokeColor=#006EAF;fontColor=#ffffff;" parent="wpcL7Qo-BOGiDXtRRDBN-132" vertex="1">
          <mxGeometry x="-40" y="9.66" width="15" height="77.84" as="geometry" />
        </mxCell>
        <mxCell id="wpcL7Qo-BOGiDXtRRDBN-135" value="" style="group" parent="wpcL7Qo-BOGiDXtRRDBN-132" vertex="1" connectable="0">
          <mxGeometry x="-20" y="-12.5" width="70" height="100" as="geometry" />
        </mxCell>
        <mxCell id="wpcL7Qo-BOGiDXtRRDBN-136" value="" style="group" parent="wpcL7Qo-BOGiDXtRRDBN-135" vertex="1" connectable="0">
          <mxGeometry width="60" height="100" as="geometry" />
        </mxCell>
        <mxCell id="wpcL7Qo-BOGiDXtRRDBN-137" value="" style="rounded=0;whiteSpace=wrap;html=1;fillColor=#1ba1e2;strokeColor=#006EAF;fontColor=#ffffff;" parent="wpcL7Qo-BOGiDXtRRDBN-136" vertex="1">
          <mxGeometry x="-5" y="22.16" width="15" height="77.84" as="geometry" />
        </mxCell>
        <mxCell id="wpcL7Qo-BOGiDXtRRDBN-147" value="" style="rounded=0;whiteSpace=wrap;html=1;fillColor=#1ba1e2;strokeColor=#006EAF;fontColor=#ffffff;" parent="wpcL7Qo-BOGiDXtRRDBN-136" vertex="1">
          <mxGeometry x="40" y="22.03" width="15" height="77.84" as="geometry" />
        </mxCell>
        <mxCell id="wpcL7Qo-BOGiDXtRRDBN-149" style="edgeStyle=orthogonalEdgeStyle;rounded=0;orthogonalLoop=1;jettySize=auto;html=1;exitX=1;exitY=0.5;exitDx=0;exitDy=0;strokeWidth=2;strokeColor=#004C99;" parent="wpcL7Qo-BOGiDXtRRDBN-136" source="wpcL7Qo-BOGiDXtRRDBN-137" target="wpcL7Qo-BOGiDXtRRDBN-147" edge="1">
          <mxGeometry relative="1" as="geometry" />
        </mxCell>
        <mxCell id="wpcL7Qo-BOGiDXtRRDBN-134" value="128" style="text;html=1;strokeColor=none;fillColor=none;align=center;verticalAlign=middle;whiteSpace=wrap;rounded=0;" parent="wpcL7Qo-BOGiDXtRRDBN-132" vertex="1">
          <mxGeometry x="-55.010000000000005" y="-7.37" width="60" height="17.027027027027025" as="geometry" />
        </mxCell>
        <mxCell id="wpcL7Qo-BOGiDXtRRDBN-148" value="64" style="text;html=1;strokeColor=none;fillColor=none;align=center;verticalAlign=middle;whiteSpace=wrap;rounded=0;" parent="wpcL7Qo-BOGiDXtRRDBN-132" vertex="1">
          <mxGeometry x="-2.5" y="-7.37" width="60" height="17.027027027027025" as="geometry" />
        </mxCell>
        <mxCell id="wpcL7Qo-BOGiDXtRRDBN-69" value="" style="group" parent="wpcL7Qo-BOGiDXtRRDBN-66" vertex="1" connectable="0">
          <mxGeometry x="20" y="20" width="80" height="185" as="geometry" />
        </mxCell>
        <mxCell id="wpcL7Qo-BOGiDXtRRDBN-67" value="" style="rounded=0;whiteSpace=wrap;html=1;fillColor=#1ba1e2;strokeColor=#006EAF;fontColor=#ffffff;" parent="wpcL7Qo-BOGiDXtRRDBN-69" vertex="1">
          <mxGeometry y="5" width="10" height="160" as="geometry" />
        </mxCell>
        <mxCell id="wpcL7Qo-BOGiDXtRRDBN-70" value="" style="rounded=0;whiteSpace=wrap;html=1;fillColor=#1ba1e2;strokeColor=#006EAF;fontColor=#ffffff;" parent="wpcL7Qo-BOGiDXtRRDBN-69" vertex="1">
          <mxGeometry x="10" y="5" width="10" height="160" as="geometry" />
        </mxCell>
        <mxCell id="wpcL7Qo-BOGiDXtRRDBN-74" value="" style="group" parent="wpcL7Qo-BOGiDXtRRDBN-66" vertex="1" connectable="0">
          <mxGeometry x="60" y="1.4210854715202004e-14" width="60" height="185" as="geometry" />
        </mxCell>
        <mxCell id="wpcL7Qo-BOGiDXtRRDBN-76" value="32" style="text;html=1;strokeColor=none;fillColor=none;align=center;verticalAlign=middle;whiteSpace=wrap;rounded=0;" parent="wpcL7Qo-BOGiDXtRRDBN-74" vertex="1">
          <mxGeometry x="-25" y="-5" width="60" height="30" as="geometry" />
        </mxCell>
        <mxCell id="wpcL7Qo-BOGiDXtRRDBN-75" value="" style="rounded=0;whiteSpace=wrap;html=1;fillColor=#1ba1e2;strokeColor=#006EAF;fontColor=#ffffff;" parent="wpcL7Qo-BOGiDXtRRDBN-74" vertex="1">
          <mxGeometry y="25" width="10" height="160" as="geometry" />
        </mxCell>
        <mxCell id="wpcL7Qo-BOGiDXtRRDBN-68" value="64" style="text;html=1;strokeColor=none;fillColor=none;align=center;verticalAlign=middle;whiteSpace=wrap;rounded=0;" parent="wpcL7Qo-BOGiDXtRRDBN-66" vertex="1">
          <mxGeometry y="-4.889999999999986" width="60" height="30" as="geometry" />
        </mxCell>
        <mxCell id="wpcL7Qo-BOGiDXtRRDBN-77" style="edgeStyle=orthogonalEdgeStyle;rounded=0;orthogonalLoop=1;jettySize=auto;html=1;entryX=0;entryY=0.5;entryDx=0;entryDy=0;strokeWidth=2;fillColor=#f5f5f5;gradientColor=#b3b3b3;strokeColor=#004C99;exitX=1;exitY=0.5;exitDx=0;exitDy=0;" parent="wpcL7Qo-BOGiDXtRRDBN-66" source="wpcL7Qo-BOGiDXtRRDBN-70" target="wpcL7Qo-BOGiDXtRRDBN-75" edge="1">
          <mxGeometry relative="1" as="geometry">
            <mxPoint x="60" y="105.11000000000001" as="sourcePoint" />
            <mxPoint x="80" y="-55.000000000000114" as="targetPoint" />
          </mxGeometry>
        </mxCell>
        <mxCell id="wpcL7Qo-BOGiDXtRRDBN-193" value="" style="group" parent="wpcL7Qo-BOGiDXtRRDBN-66" vertex="1" connectable="0">
          <mxGeometry x="419.99" y="254.99999999999994" width="99.99000000000001" height="47.84" as="geometry" />
        </mxCell>
        <mxCell id="wpcL7Qo-BOGiDXtRRDBN-194" value="" style="rounded=0;whiteSpace=wrap;html=1;fillColor=#1ba1e2;strokeColor=#006EAF;fontColor=#ffffff;" parent="wpcL7Qo-BOGiDXtRRDBN-193" vertex="1">
          <mxGeometry y="10.6" width="20" height="37.24" as="geometry" />
        </mxCell>
        <mxCell id="wpcL7Qo-BOGiDXtRRDBN-198" value="" style="rounded=0;whiteSpace=wrap;html=1;fillColor=#1ba1e2;strokeColor=#006EAF;fontColor=#ffffff;" parent="wpcL7Qo-BOGiDXtRRDBN-193" vertex="1">
          <mxGeometry x="20" y="10.6" width="20" height="37.24" as="geometry" />
        </mxCell>
        <mxCell id="wpcL7Qo-BOGiDXtRRDBN-195" value="256" style="text;html=1;strokeColor=none;fillColor=none;align=center;verticalAlign=middle;whiteSpace=wrap;rounded=0;" parent="wpcL7Qo-BOGiDXtRRDBN-193" vertex="1">
          <mxGeometry x="-10.009999999999991" y="-2.17" width="60" height="8.145729729729728" as="geometry" />
        </mxCell>
        <mxCell id="wpcL7Qo-BOGiDXtRRDBN-205" value="128" style="text;html=1;strokeColor=none;fillColor=none;align=center;verticalAlign=middle;whiteSpace=wrap;rounded=0;" parent="wpcL7Qo-BOGiDXtRRDBN-193" vertex="1">
          <mxGeometry x="39.99000000000001" y="-4.13" width="60" height="13.15" as="geometry" />
        </mxCell>
        <mxCell id="wpcL7Qo-BOGiDXtRRDBN-206" style="edgeStyle=orthogonalEdgeStyle;rounded=0;orthogonalLoop=1;jettySize=auto;html=1;entryX=0;entryY=0.5;entryDx=0;entryDy=0;strokeWidth=2;strokeColor=#004C99;" parent="wpcL7Qo-BOGiDXtRRDBN-66" source="wpcL7Qo-BOGiDXtRRDBN-198" target="wpcL7Qo-BOGiDXtRRDBN-204" edge="1">
          <mxGeometry relative="1" as="geometry" />
        </mxCell>
        <mxCell id="wpcL7Qo-BOGiDXtRRDBN-204" value="" style="rounded=0;whiteSpace=wrap;html=1;fillColor=#1ba1e2;strokeColor=#006EAF;fontColor=#ffffff;" parent="wpcL7Qo-BOGiDXtRRDBN-66" vertex="1">
          <mxGeometry x="479.98" y="265.59999999999997" width="20.01" height="37.24" as="geometry" />
        </mxCell>
        <mxCell id="wpcL7Qo-BOGiDXtRRDBN-299" value="" style="group" parent="wpcL7Qo-BOGiDXtRRDBN-66" vertex="1" connectable="0">
          <mxGeometry x="659.99" y="314.99999999999994" width="240" height="34.78" as="geometry" />
        </mxCell>
        <mxCell id="wpcL7Qo-BOGiDXtRRDBN-300" value="" style="group" parent="wpcL7Qo-BOGiDXtRRDBN-299" vertex="1" connectable="0">
          <mxGeometry y="4.78" width="30" height="30" as="geometry" />
        </mxCell>
        <mxCell id="wpcL7Qo-BOGiDXtRRDBN-301" value="" style="group" parent="wpcL7Qo-BOGiDXtRRDBN-300" vertex="1" connectable="0">
          <mxGeometry width="30" height="30" as="geometry" />
        </mxCell>
        <mxCell id="wpcL7Qo-BOGiDXtRRDBN-302" value="" style="rounded=0;whiteSpace=wrap;html=1;fillColor=#1ba1e2;strokeColor=#006EAF;fontColor=#ffffff;" parent="wpcL7Qo-BOGiDXtRRDBN-301" vertex="1">
          <mxGeometry y="4.78" width="30" height="20.22" as="geometry" />
        </mxCell>
        <mxCell id="wpcL7Qo-BOGiDXtRRDBN-310" value="" style="rounded=0;whiteSpace=wrap;html=1;fillColor=#1ba1e2;strokeColor=#006EAF;fontColor=#ffffff;" parent="wpcL7Qo-BOGiDXtRRDBN-299" vertex="1">
          <mxGeometry x="30.01" y="9.56" width="29.99" height="20.22" as="geometry" />
        </mxCell>
        <mxCell id="wpcL7Qo-BOGiDXtRRDBN-303" value="512" style="text;html=1;strokeColor=none;fillColor=none;align=center;verticalAlign=middle;whiteSpace=wrap;rounded=0;" parent="wpcL7Qo-BOGiDXtRRDBN-299" vertex="1">
          <mxGeometry width="60" height="4.77608108108108" as="geometry" />
        </mxCell>
        <mxCell id="wpcL7Qo-BOGiDXtRRDBN-315" value="" style="rounded=0;whiteSpace=wrap;html=1;fillColor=#1ba1e2;strokeColor=#006EAF;fontColor=#ffffff;" parent="wpcL7Qo-BOGiDXtRRDBN-299" vertex="1">
          <mxGeometry x="80" y="10" width="30" height="20.22" as="geometry" />
        </mxCell>
        <mxCell id="wpcL7Qo-BOGiDXtRRDBN-318" style="edgeStyle=orthogonalEdgeStyle;rounded=0;orthogonalLoop=1;jettySize=auto;html=1;exitX=1;exitY=0.5;exitDx=0;exitDy=0;entryX=0;entryY=0.5;entryDx=0;entryDy=0;strokeWidth=2;strokeColor=#004C99;" parent="wpcL7Qo-BOGiDXtRRDBN-299" source="wpcL7Qo-BOGiDXtRRDBN-310" target="wpcL7Qo-BOGiDXtRRDBN-315" edge="1">
          <mxGeometry relative="1" as="geometry" />
        </mxCell>
        <mxCell id="wpcL7Qo-BOGiDXtRRDBN-316" value="256" style="text;html=1;strokeColor=none;fillColor=none;align=center;verticalAlign=middle;whiteSpace=wrap;rounded=0;" parent="wpcL7Qo-BOGiDXtRRDBN-66" vertex="1">
          <mxGeometry x="724.99" y="315" width="60" height="4.77608108108108" as="geometry" />
        </mxCell>
        <mxCell id="wpcL7Qo-BOGiDXtRRDBN-379" value="" style="group" parent="wpcL7Qo-BOGiDXtRRDBN-66" vertex="1" connectable="0">
          <mxGeometry x="939.9900000000002" y="374.89" width="1255" height="45.110000000000014" as="geometry" />
        </mxCell>
        <mxCell id="wpcL7Qo-BOGiDXtRRDBN-380" value="" style="group" parent="wpcL7Qo-BOGiDXtRRDBN-379" vertex="1" connectable="0">
          <mxGeometry y="-19.889999999999997" width="360" height="30" as="geometry" />
        </mxCell>
        <mxCell id="wpcL7Qo-BOGiDXtRRDBN-381" value="" style="group" parent="wpcL7Qo-BOGiDXtRRDBN-380" vertex="1" connectable="0">
          <mxGeometry width="360" height="30" as="geometry" />
        </mxCell>
        <mxCell id="wpcL7Qo-BOGiDXtRRDBN-382" value="" style="rounded=0;whiteSpace=wrap;html=1;fillColor=#1ba1e2;strokeColor=#006EAF;fontColor=#ffffff;" parent="wpcL7Qo-BOGiDXtRRDBN-381" vertex="1">
          <mxGeometry y="15" width="40" height="10" as="geometry" />
        </mxCell>
        <mxCell id="wpcL7Qo-BOGiDXtRRDBN-387" value="" style="rounded=0;whiteSpace=wrap;html=1;fillColor=#1ba1e2;strokeColor=#006EAF;fontColor=#ffffff;" parent="wpcL7Qo-BOGiDXtRRDBN-381" vertex="1">
          <mxGeometry x="40" y="15.11" width="40" height="10" as="geometry" />
        </mxCell>
        <mxCell id="wpcL7Qo-BOGiDXtRRDBN-383" value="1024" style="text;html=1;strokeColor=none;fillColor=none;align=center;verticalAlign=middle;whiteSpace=wrap;rounded=0;" parent="wpcL7Qo-BOGiDXtRRDBN-381" vertex="1">
          <mxGeometry x="-20" y="5.3300000000000125" width="120" height="4.77608108108108" as="geometry" />
        </mxCell>
        <mxCell id="wpcL7Qo-BOGiDXtRRDBN-396" value="" style="group" parent="wpcL7Qo-BOGiDXtRRDBN-379" vertex="1" connectable="0">
          <mxGeometry x="100" y="-19.779999999999983" width="540" height="35.279999999999994" as="geometry" />
        </mxCell>
        <mxCell id="kaieTg2gVCFy3QJMiGym-206" style="edgeStyle=orthogonalEdgeStyle;rounded=0;orthogonalLoop=1;jettySize=auto;html=1;entryX=0;entryY=0.5;entryDx=0;entryDy=0;strokeWidth=2;" parent="wpcL7Qo-BOGiDXtRRDBN-396" source="kaieTg2gVCFy3QJMiGym-63" target="kaieTg2gVCFy3QJMiGym-194" edge="1">
          <mxGeometry relative="1" as="geometry" />
        </mxCell>
        <mxCell id="kaieTg2gVCFy3QJMiGym-63" value="μ" style="rounded=0;whiteSpace=wrap;html=1;" parent="wpcL7Qo-BOGiDXtRRDBN-396" vertex="1">
          <mxGeometry x="19.999999999999773" y="-1.6000000000000227" width="20" height="20" as="geometry" />
        </mxCell>
        <mxCell id="kaieTg2gVCFy3QJMiGym-194" value="&lt;div align=&quot;justify&quot;&gt;+&lt;/div&gt;" style="ellipse;whiteSpace=wrap;html=1;aspect=fixed;align=center;fontStyle=1" parent="wpcL7Qo-BOGiDXtRRDBN-396" vertex="1">
          <mxGeometry x="99.99999999999977" y="10" width="20" height="20" as="geometry" />
        </mxCell>
        <mxCell id="kaieTg2gVCFy3QJMiGym-189" value="σ" style="rounded=0;whiteSpace=wrap;html=1;" parent="wpcL7Qo-BOGiDXtRRDBN-379" vertex="1">
          <mxGeometry x="119.99999999999977" y="10.110000000000014" width="20" height="20" as="geometry" />
        </mxCell>
        <mxCell id="kaieTg2gVCFy3QJMiGym-191" style="edgeStyle=orthogonalEdgeStyle;rounded=0;orthogonalLoop=1;jettySize=auto;html=1;exitX=1;exitY=0.5;exitDx=0;exitDy=0;entryX=0;entryY=0.5;entryDx=0;entryDy=0;strokeWidth=2;" parent="wpcL7Qo-BOGiDXtRRDBN-379" source="wpcL7Qo-BOGiDXtRRDBN-387" target="kaieTg2gVCFy3QJMiGym-63" edge="1">
          <mxGeometry relative="1" as="geometry" />
        </mxCell>
        <mxCell id="kaieTg2gVCFy3QJMiGym-192" style="edgeStyle=orthogonalEdgeStyle;rounded=0;orthogonalLoop=1;jettySize=auto;html=1;entryX=0;entryY=0.5;entryDx=0;entryDy=0;strokeWidth=2;" parent="wpcL7Qo-BOGiDXtRRDBN-379" source="wpcL7Qo-BOGiDXtRRDBN-387" target="kaieTg2gVCFy3QJMiGym-189" edge="1">
          <mxGeometry relative="1" as="geometry" />
        </mxCell>
        <mxCell id="kaieTg2gVCFy3QJMiGym-207" style="edgeStyle=orthogonalEdgeStyle;rounded=0;orthogonalLoop=1;jettySize=auto;html=1;exitX=1;exitY=0.5;exitDx=0;exitDy=0;entryX=0.5;entryY=1;entryDx=0;entryDy=0;strokeWidth=2;" parent="wpcL7Qo-BOGiDXtRRDBN-379" source="kaieTg2gVCFy3QJMiGym-196" target="kaieTg2gVCFy3QJMiGym-194" edge="1">
          <mxGeometry relative="1" as="geometry" />
        </mxCell>
        <mxCell id="kaieTg2gVCFy3QJMiGym-196" value="&lt;div align=&quot;justify&quot;&gt;•&lt;/div&gt;" style="ellipse;whiteSpace=wrap;html=1;aspect=fixed;align=center;fontStyle=1" parent="wpcL7Qo-BOGiDXtRRDBN-379" vertex="1">
          <mxGeometry x="169.99999999999977" y="25.110000000000014" width="20" height="20" as="geometry" />
        </mxCell>
        <mxCell id="kaieTg2gVCFy3QJMiGym-200" style="edgeStyle=orthogonalEdgeStyle;rounded=0;orthogonalLoop=1;jettySize=auto;html=1;entryX=0;entryY=0.5;entryDx=0;entryDy=0;strokeWidth=2;" parent="wpcL7Qo-BOGiDXtRRDBN-379" source="kaieTg2gVCFy3QJMiGym-189" target="kaieTg2gVCFy3QJMiGym-196" edge="1">
          <mxGeometry relative="1" as="geometry">
            <mxPoint x="159.99999999999977" y="35.110000000000014" as="targetPoint" />
            <Array as="points">
              <mxPoint x="150" y="20" />
              <mxPoint x="150" y="35" />
            </Array>
          </mxGeometry>
        </mxCell>
        <mxCell id="wpcL7Qo-BOGiDXtRRDBN-413" value="" style="group" parent="wpcL7Qo-BOGiDXtRRDBN-379" vertex="1" connectable="0">
          <mxGeometry x="340" y="-14.5" width="30" height="30" as="geometry" />
        </mxCell>
        <mxCell id="wpcL7Qo-BOGiDXtRRDBN-414" value="" style="group" parent="wpcL7Qo-BOGiDXtRRDBN-413" vertex="1" connectable="0">
          <mxGeometry width="30" height="30" as="geometry" />
        </mxCell>
        <mxCell id="wpcL7Qo-BOGiDXtRRDBN-415" value="" style="rounded=0;whiteSpace=wrap;html=1;fillColor=#1ba1e2;strokeColor=#006EAF;fontColor=#ffffff;" parent="wpcL7Qo-BOGiDXtRRDBN-414" vertex="1">
          <mxGeometry y="4.78" width="30" height="20.22" as="geometry" />
        </mxCell>
        <mxCell id="wpcL7Qo-BOGiDXtRRDBN-416" value="256" style="text;html=1;strokeColor=none;fillColor=none;align=center;verticalAlign=middle;whiteSpace=wrap;rounded=0;" parent="wpcL7Qo-BOGiDXtRRDBN-379" vertex="1">
          <mxGeometry x="324.9999999999998" y="-19.889999999999986" width="60" height="4.77608108108108" as="geometry" />
        </mxCell>
        <mxCell id="wpcL7Qo-BOGiDXtRRDBN-424" value="" style="rounded=0;whiteSpace=wrap;html=1;fillColor=#1ba1e2;strokeColor=#006EAF;fontColor=#ffffff;" parent="wpcL7Qo-BOGiDXtRRDBN-66" vertex="1">
          <mxGeometry x="1410" y="325" width="30" height="20.22" as="geometry" />
        </mxCell>
        <mxCell id="wpcL7Qo-BOGiDXtRRDBN-425" value="" style="rounded=0;whiteSpace=wrap;html=1;fillColor=#1ba1e2;strokeColor=#006EAF;fontColor=#ffffff;" parent="wpcL7Qo-BOGiDXtRRDBN-66" vertex="1">
          <mxGeometry x="1379.9899999999998" y="325" width="30.01" height="20.22" as="geometry" />
        </mxCell>
        <mxCell id="wpcL7Qo-BOGiDXtRRDBN-433" value="512" style="text;html=1;strokeColor=none;fillColor=none;align=center;verticalAlign=middle;whiteSpace=wrap;rounded=0;" parent="wpcL7Qo-BOGiDXtRRDBN-66" vertex="1">
          <mxGeometry x="1379.9899999999998" y="302.39" width="60" height="30" as="geometry" />
        </mxCell>
        <mxCell id="wpcL7Qo-BOGiDXtRRDBN-446" style="edgeStyle=orthogonalEdgeStyle;rounded=0;orthogonalLoop=1;jettySize=auto;html=1;strokeWidth=2;fillColor=#e6d0de;strokeColor=#996185;gradientColor=#d5739d;" parent="wpcL7Qo-BOGiDXtRRDBN-66" source="wpcL7Qo-BOGiDXtRRDBN-424" target="wpcL7Qo-BOGiDXtRRDBN-444" edge="1">
          <mxGeometry relative="1" as="geometry" />
        </mxCell>
        <mxCell id="wpcL7Qo-BOGiDXtRRDBN-441" value="" style="group" parent="wpcL7Qo-BOGiDXtRRDBN-66" vertex="1" connectable="0">
          <mxGeometry x="1459.9899999999998" y="316.38" width="1479.9899999999998" height="34.78" as="geometry" />
        </mxCell>
        <mxCell id="wpcL7Qo-BOGiDXtRRDBN-442" value="" style="group" parent="wpcL7Qo-BOGiDXtRRDBN-441" vertex="1" connectable="0">
          <mxGeometry y="4.78" width="30" height="30" as="geometry" />
        </mxCell>
        <mxCell id="wpcL7Qo-BOGiDXtRRDBN-443" value="" style="group" parent="wpcL7Qo-BOGiDXtRRDBN-442" vertex="1" connectable="0">
          <mxGeometry width="30" height="30" as="geometry" />
        </mxCell>
        <mxCell id="wpcL7Qo-BOGiDXtRRDBN-444" value="" style="rounded=0;whiteSpace=wrap;html=1;fillColor=#1ba1e2;strokeColor=#006EAF;fontColor=#ffffff;" parent="wpcL7Qo-BOGiDXtRRDBN-443" vertex="1">
          <mxGeometry y="4.78" width="30" height="20.22" as="geometry" />
        </mxCell>
        <mxCell id="wpcL7Qo-BOGiDXtRRDBN-447" value="" style="group" parent="wpcL7Qo-BOGiDXtRRDBN-441" vertex="1" connectable="0">
          <mxGeometry x="50" y="-0.11000000000001364" width="30.01" height="34.78" as="geometry" />
        </mxCell>
        <mxCell id="wpcL7Qo-BOGiDXtRRDBN-448" value="" style="group" parent="wpcL7Qo-BOGiDXtRRDBN-447" vertex="1" connectable="0">
          <mxGeometry y="4.780000000000001" width="30.010000000000005" height="30" as="geometry" />
        </mxCell>
        <mxCell id="wpcL7Qo-BOGiDXtRRDBN-449" value="" style="group" parent="wpcL7Qo-BOGiDXtRRDBN-448" vertex="1" connectable="0">
          <mxGeometry width="30.010000000000005" height="30" as="geometry" />
        </mxCell>
        <mxCell id="wpcL7Qo-BOGiDXtRRDBN-450" value="" style="rounded=0;whiteSpace=wrap;html=1;fillColor=#1ba1e2;strokeColor=#006EAF;fontColor=#ffffff;" parent="wpcL7Qo-BOGiDXtRRDBN-449" vertex="1">
          <mxGeometry y="4.78" width="30.010000000000005" height="20.22" as="geometry" />
        </mxCell>
        <mxCell id="wpcL7Qo-BOGiDXtRRDBN-452" style="edgeStyle=orthogonalEdgeStyle;rounded=0;orthogonalLoop=1;jettySize=auto;html=1;entryX=0;entryY=0.5;entryDx=0;entryDy=0;strokeWidth=2;fillColor=#e6d0de;gradientColor=#d5739d;strokeColor=#996185;" parent="wpcL7Qo-BOGiDXtRRDBN-441" source="wpcL7Qo-BOGiDXtRRDBN-444" target="wpcL7Qo-BOGiDXtRRDBN-450" edge="1">
          <mxGeometry relative="1" as="geometry" />
        </mxCell>
        <mxCell id="wpcL7Qo-BOGiDXtRRDBN-508" value="" style="rounded=0;whiteSpace=wrap;html=1;fillColor=#1ba1e2;strokeColor=#006EAF;fontColor=#ffffff;" parent="wpcL7Qo-BOGiDXtRRDBN-441" vertex="1">
          <mxGeometry x="99.99999999999977" y="1.160000000000006" width="20.01" height="37.24" as="geometry" />
        </mxCell>
        <mxCell id="wpcL7Qo-BOGiDXtRRDBN-535" value="" style="group" parent="wpcL7Qo-BOGiDXtRRDBN-441" vertex="1" connectable="0">
          <mxGeometry x="320" y="-61.15999999999997" width="284.99" height="47.84" as="geometry" />
        </mxCell>
        <mxCell id="wpcL7Qo-BOGiDXtRRDBN-608" value="" style="group" parent="wpcL7Qo-BOGiDXtRRDBN-441" vertex="1" connectable="0">
          <mxGeometry x="784.9999999999998" y="-451.38000000000005" width="30" height="185" as="geometry" />
        </mxCell>
        <mxCell id="wpcL7Qo-BOGiDXtRRDBN-609" value="" style="rounded=0;whiteSpace=wrap;html=1;fillColor=#1ba1e2;strokeColor=#006EAF;fontColor=#ffffff;" parent="wpcL7Qo-BOGiDXtRRDBN-608" vertex="1">
          <mxGeometry x="13" y="25" width="5" height="160" as="geometry" />
        </mxCell>
        <mxCell id="wpcL7Qo-BOGiDXtRRDBN-610" value="3" style="text;html=1;align=center;verticalAlign=middle;resizable=0;points=[];autosize=1;strokeColor=none;fillColor=none;" parent="wpcL7Qo-BOGiDXtRRDBN-608" vertex="1">
          <mxGeometry width="30" height="30" as="geometry" />
        </mxCell>
        <mxCell id="wpcL7Qo-BOGiDXtRRDBN-613" value="&lt;div align=&quot;left&quot;&gt;Output&lt;/div&gt;&lt;div align=&quot;left&quot;&gt;image&lt;br&gt;&lt;/div&gt;" style="text;html=1;strokeColor=none;fillColor=none;align=left;verticalAlign=middle;whiteSpace=wrap;rounded=0;fontStyle=1" parent="wpcL7Qo-BOGiDXtRRDBN-441" vertex="1">
          <mxGeometry x="809.9999999999998" y="-426.38000000000005" width="60" height="30" as="geometry" />
        </mxCell>
        <mxCell id="wpcL7Qo-BOGiDXtRRDBN-511" style="edgeStyle=orthogonalEdgeStyle;rounded=0;orthogonalLoop=1;jettySize=auto;html=1;exitX=1;exitY=0.5;exitDx=0;exitDy=0;entryX=0;entryY=0.5;entryDx=0;entryDy=0;strokeWidth=2;strokeColor=#738042;" parent="wpcL7Qo-BOGiDXtRRDBN-441" source="wpcL7Qo-BOGiDXtRRDBN-450" target="wpcL7Qo-BOGiDXtRRDBN-508" edge="1">
          <mxGeometry relative="1" as="geometry">
            <mxPoint x="64.99999999999999" y="19.56000000000006" as="sourcePoint" />
            <mxPoint x="1309.99" y="-78.77999999999997" as="targetPoint" />
          </mxGeometry>
        </mxCell>
        <mxCell id="wpcL7Qo-BOGiDXtRRDBN-544" value="" style="group" parent="wpcL7Qo-BOGiDXtRRDBN-441" vertex="1" connectable="0">
          <mxGeometry x="300.01" y="-95.10999999999999" width="70" height="99.89" as="geometry" />
        </mxCell>
        <mxCell id="wpcL7Qo-BOGiDXtRRDBN-546" value="" style="rounded=0;whiteSpace=wrap;html=1;fillColor=#1ba1e2;strokeColor=#006EAF;fontColor=#ffffff;" parent="wpcL7Qo-BOGiDXtRRDBN-544" vertex="1">
          <mxGeometry x="20" y="23.18" width="15" height="77.75" as="geometry" />
        </mxCell>
        <mxCell id="wpcL7Qo-BOGiDXtRRDBN-547" value="64" style="text;html=1;strokeColor=none;fillColor=none;align=center;verticalAlign=middle;whiteSpace=wrap;rounded=0;" parent="wpcL7Qo-BOGiDXtRRDBN-544" vertex="1">
          <mxGeometry x="-2.5" y="10" width="60" height="12.14" as="geometry" />
        </mxCell>
        <mxCell id="wpcL7Qo-BOGiDXtRRDBN-445" value="256" style="text;html=1;strokeColor=none;fillColor=none;align=center;verticalAlign=middle;whiteSpace=wrap;rounded=0;" parent="wpcL7Qo-BOGiDXtRRDBN-66" vertex="1">
          <mxGeometry x="1444.9899999999998" y="315" width="60" height="4.77608108108108" as="geometry" />
        </mxCell>
        <mxCell id="wpcL7Qo-BOGiDXtRRDBN-451" value="256" style="text;html=1;strokeColor=none;fillColor=none;align=center;verticalAlign=middle;whiteSpace=wrap;rounded=0;" parent="wpcL7Qo-BOGiDXtRRDBN-66" vertex="1">
          <mxGeometry x="1519.368125" y="315" width="11.253750000000002" height="4.77608108108108" as="geometry" />
        </mxCell>
        <mxCell id="kaieTg2gVCFy3QJMiGym-205" style="edgeStyle=orthogonalEdgeStyle;rounded=0;orthogonalLoop=1;jettySize=auto;html=1;exitX=1;exitY=0.5;exitDx=0;exitDy=0;entryX=0;entryY=0.5;entryDx=0;entryDy=0;strokeWidth=2;" parent="wpcL7Qo-BOGiDXtRRDBN-66" source="kaieTg2gVCFy3QJMiGym-190" target="kaieTg2gVCFy3QJMiGym-196" edge="1">
          <mxGeometry relative="1" as="geometry">
            <Array as="points">
              <mxPoint x="1090" y="425" />
              <mxPoint x="1090" y="410" />
            </Array>
          </mxGeometry>
        </mxCell>
        <mxCell id="kaieTg2gVCFy3QJMiGym-190" value="ε" style="rounded=0;whiteSpace=wrap;html=1;" parent="wpcL7Qo-BOGiDXtRRDBN-66" vertex="1">
          <mxGeometry x="1059.99" y="415" width="20" height="20" as="geometry" />
        </mxCell>
        <mxCell id="wpcL7Qo-BOGiDXtRRDBN-426" style="edgeStyle=orthogonalEdgeStyle;rounded=0;orthogonalLoop=1;jettySize=auto;html=1;entryX=0;entryY=0.5;entryDx=0;entryDy=0;strokeWidth=2;exitX=1;exitY=0.5;exitDx=0;exitDy=0;" parent="wpcL7Qo-BOGiDXtRRDBN-66" source="wpcL7Qo-BOGiDXtRRDBN-415" target="wpcL7Qo-BOGiDXtRRDBN-425" edge="1">
          <mxGeometry relative="1" as="geometry">
            <mxPoint x="2054.99" y="86.49000000000001" as="sourcePoint" />
            <Array as="points">
              <mxPoint x="1340" y="375" />
              <mxPoint x="1340" y="335" />
            </Array>
          </mxGeometry>
        </mxCell>
        <mxCell id="wpcL7Qo-BOGiDXtRRDBN-428" style="rounded=0;orthogonalLoop=1;jettySize=auto;html=1;strokeWidth=2;jumpStyle=arc;jumpSize=18;endArrow=none;endFill=0;exitX=1;exitY=0.5;exitDx=0;exitDy=0;edgeStyle=orthogonalEdgeStyle;" parent="wpcL7Qo-BOGiDXtRRDBN-66" source="wpcL7Qo-BOGiDXtRRDBN-315" edge="1">
          <mxGeometry relative="1" as="geometry">
            <mxPoint x="1660.0000000000002" y="275" as="sourcePoint" />
            <mxPoint x="1339.99" y="335" as="targetPoint" />
          </mxGeometry>
        </mxCell>
        <mxCell id="wpcL7Qo-BOGiDXtRRDBN-509" value="128" style="text;html=1;strokeColor=none;fillColor=none;align=center;verticalAlign=middle;whiteSpace=wrap;rounded=0;" parent="wpcL7Qo-BOGiDXtRRDBN-66" vertex="1">
          <mxGeometry x="1537.4899999999998" y="302.84000000000003" width="60" height="8.145729729729728" as="geometry" />
        </mxCell>
        <mxCell id="wpcL7Qo-BOGiDXtRRDBN-526" value="" style="rounded=0;whiteSpace=wrap;html=1;fillColor=#1ba1e2;strokeColor=#006EAF;fontColor=#ffffff;" parent="wpcL7Qo-BOGiDXtRRDBN-66" vertex="1">
          <mxGeometry x="1639.9899999999996" y="265.15000000000003" width="20.01" height="37.24" as="geometry" />
        </mxCell>
        <mxCell id="wpcL7Qo-BOGiDXtRRDBN-527" value="" style="rounded=0;whiteSpace=wrap;html=1;fillColor=#1ba1e2;strokeColor=#006EAF;fontColor=#ffffff;" parent="wpcL7Qo-BOGiDXtRRDBN-66" vertex="1">
          <mxGeometry x="1659.9999999999998" y="265.15000000000003" width="20.01" height="37.24" as="geometry" />
        </mxCell>
        <mxCell id="wpcL7Qo-BOGiDXtRRDBN-530" value="256" style="text;html=1;strokeColor=none;fillColor=none;align=center;verticalAlign=middle;whiteSpace=wrap;rounded=0;" parent="wpcL7Qo-BOGiDXtRRDBN-66" vertex="1">
          <mxGeometry x="1629.9899999999996" y="254.55" width="60" height="5.11" as="geometry" />
        </mxCell>
        <mxCell id="wpcL7Qo-BOGiDXtRRDBN-541" style="edgeStyle=orthogonalEdgeStyle;rounded=0;orthogonalLoop=1;jettySize=auto;html=1;entryX=0;entryY=0.5;entryDx=0;entryDy=0;strokeWidth=2;fillColor=#e6d0de;gradientColor=#d5739d;strokeColor=#996185;" parent="wpcL7Qo-BOGiDXtRRDBN-66" source="wpcL7Qo-BOGiDXtRRDBN-527" target="wpcL7Qo-BOGiDXtRRDBN-533" edge="1">
          <mxGeometry relative="1" as="geometry" />
        </mxCell>
        <mxCell id="wpcL7Qo-BOGiDXtRRDBN-533" value="" style="rounded=0;whiteSpace=wrap;html=1;fillColor=#1ba1e2;strokeColor=#006EAF;fontColor=#ffffff;" parent="wpcL7Qo-BOGiDXtRRDBN-66" vertex="1">
          <mxGeometry x="1699.9899999999996" y="265.15000000000003" width="20.01" height="37.24" as="geometry" />
        </mxCell>
        <mxCell id="wpcL7Qo-BOGiDXtRRDBN-534" value="128" style="text;html=1;strokeColor=none;fillColor=none;align=center;verticalAlign=middle;whiteSpace=wrap;rounded=0;" parent="wpcL7Qo-BOGiDXtRRDBN-66" vertex="1">
          <mxGeometry x="1700.9930000000002" y="250.46999999999997" width="18.006" height="13.26" as="geometry" />
        </mxCell>
        <mxCell id="kaieTg2gVCFy3QJMiGym-58" value="" style="rounded=0;whiteSpace=wrap;html=1;fillColor=#1ba1e2;strokeColor=#006EAF;fontColor=#ffffff;" parent="wpcL7Qo-BOGiDXtRRDBN-66" vertex="1">
          <mxGeometry x="1739.9899999999996" y="264.7" width="20.01" height="37.24" as="geometry" />
        </mxCell>
        <mxCell id="kaieTg2gVCFy3QJMiGym-59" value="128" style="text;html=1;strokeColor=none;fillColor=none;align=center;verticalAlign=middle;whiteSpace=wrap;rounded=0;" parent="wpcL7Qo-BOGiDXtRRDBN-66" vertex="1">
          <mxGeometry x="1740.9930000000002" y="250.01999999999992" width="18.006" height="13.26" as="geometry" />
        </mxCell>
        <mxCell id="wpcL7Qo-BOGiDXtRRDBN-542" style="edgeStyle=orthogonalEdgeStyle;rounded=0;orthogonalLoop=1;jettySize=auto;html=1;exitX=1;exitY=0.5;exitDx=0;exitDy=0;entryX=0;entryY=0.5;entryDx=0;entryDy=0;strokeWidth=2;fillColor=#e6d0de;gradientColor=#d5739d;strokeColor=#996185;" parent="wpcL7Qo-BOGiDXtRRDBN-66" source="wpcL7Qo-BOGiDXtRRDBN-533" target="kaieTg2gVCFy3QJMiGym-58" edge="1">
          <mxGeometry relative="1" as="geometry">
            <mxPoint x="1739.9899999999996" y="283.32" as="targetPoint" />
          </mxGeometry>
        </mxCell>
        <mxCell id="wpcL7Qo-BOGiDXtRRDBN-528" style="edgeStyle=orthogonalEdgeStyle;rounded=0;orthogonalLoop=1;jettySize=auto;html=1;entryX=0;entryY=0.5;entryDx=0;entryDy=0;strokeWidth=2;" parent="wpcL7Qo-BOGiDXtRRDBN-66" source="wpcL7Qo-BOGiDXtRRDBN-508" target="wpcL7Qo-BOGiDXtRRDBN-526" edge="1">
          <mxGeometry relative="1" as="geometry">
            <Array as="points">
              <mxPoint x="1600" y="336" />
              <mxPoint x="1600" y="284" />
            </Array>
          </mxGeometry>
        </mxCell>
        <mxCell id="kaieTg2gVCFy3QJMiGym-62" style="edgeStyle=orthogonalEdgeStyle;rounded=0;orthogonalLoop=1;jettySize=auto;html=1;exitX=1;exitY=0.5;exitDx=0;exitDy=0;strokeWidth=2;strokeColor=#738042;entryX=0;entryY=0.5;entryDx=0;entryDy=0;" parent="wpcL7Qo-BOGiDXtRRDBN-66" source="kaieTg2gVCFy3QJMiGym-58" target="wpcL7Qo-BOGiDXtRRDBN-546" edge="1">
          <mxGeometry relative="1" as="geometry">
            <mxPoint x="1954.9799999999996" y="284" as="targetPoint" />
            <mxPoint x="1824.9880000000003" y="284.22" as="sourcePoint" />
          </mxGeometry>
        </mxCell>
        <mxCell id="wpcL7Qo-BOGiDXtRRDBN-562" value="" style="group" parent="wpcL7Qo-BOGiDXtRRDBN-66" vertex="1" connectable="0">
          <mxGeometry x="1879.9899999999996" y="165.6" width="77.49000000000001" height="100" as="geometry" />
        </mxCell>
        <mxCell id="wpcL7Qo-BOGiDXtRRDBN-563" value="" style="group" parent="wpcL7Qo-BOGiDXtRRDBN-562" vertex="1" connectable="0">
          <mxGeometry y="-1.08" width="77.49000000000001" height="100" as="geometry" />
        </mxCell>
        <mxCell id="wpcL7Qo-BOGiDXtRRDBN-564" value="" style="rounded=0;whiteSpace=wrap;html=1;fillColor=#1ba1e2;strokeColor=#006EAF;fontColor=#ffffff;" parent="wpcL7Qo-BOGiDXtRRDBN-563" vertex="1">
          <mxGeometry x="-5" y="22.03" width="15" height="77.84" as="geometry" />
        </mxCell>
        <mxCell id="wpcL7Qo-BOGiDXtRRDBN-550" value="" style="group" parent="wpcL7Qo-BOGiDXtRRDBN-563" vertex="1" connectable="0">
          <mxGeometry x="-40" y="-0.12999999999999545" width="117.49000000000001" height="100.00000000000001" as="geometry" />
        </mxCell>
        <mxCell id="wpcL7Qo-BOGiDXtRRDBN-551" value="" style="group" parent="wpcL7Qo-BOGiDXtRRDBN-550" vertex="1" connectable="0">
          <mxGeometry width="117.49000000000001" height="100.00000000000001" as="geometry" />
        </mxCell>
        <mxCell id="wpcL7Qo-BOGiDXtRRDBN-553" value="" style="rounded=0;whiteSpace=wrap;html=1;fillColor=#1ba1e2;strokeColor=#006EAF;fontColor=#ffffff;" parent="wpcL7Qo-BOGiDXtRRDBN-551" vertex="1">
          <mxGeometry x="20" y="22.16" width="15" height="77.84" as="geometry" />
        </mxCell>
        <mxCell id="wpcL7Qo-BOGiDXtRRDBN-572" value="" style="rounded=0;whiteSpace=wrap;html=1;fillColor=#1ba1e2;strokeColor=#006EAF;fontColor=#ffffff;" parent="wpcL7Qo-BOGiDXtRRDBN-551" vertex="1">
          <mxGeometry x="79.99000000000001" y="22.16000000000001" width="15" height="77.84" as="geometry" />
        </mxCell>
        <mxCell id="wpcL7Qo-BOGiDXtRRDBN-573" value="64" style="text;html=1;strokeColor=none;fillColor=none;align=center;verticalAlign=middle;whiteSpace=wrap;rounded=0;" parent="wpcL7Qo-BOGiDXtRRDBN-551" vertex="1">
          <mxGeometry x="57.49" y="4.120000000000009" width="60" height="17.027027027027025" as="geometry" />
        </mxCell>
        <mxCell id="wpcL7Qo-BOGiDXtRRDBN-554" value="128" style="text;html=1;strokeColor=none;fillColor=none;align=center;verticalAlign=middle;whiteSpace=wrap;rounded=0;" parent="wpcL7Qo-BOGiDXtRRDBN-563" vertex="1">
          <mxGeometry x="-35.010000000000005" y="5.000000000000004" width="60" height="17.027027027027025" as="geometry" />
        </mxCell>
        <mxCell id="wpcL7Qo-BOGiDXtRRDBN-578" style="edgeStyle=orthogonalEdgeStyle;rounded=0;orthogonalLoop=1;jettySize=auto;html=1;entryX=0;entryY=0.5;entryDx=0;entryDy=0;strokeWidth=2;fillColor=#e6d0de;gradientColor=#d5739d;strokeColor=#996185;" parent="wpcL7Qo-BOGiDXtRRDBN-563" source="wpcL7Qo-BOGiDXtRRDBN-564" target="wpcL7Qo-BOGiDXtRRDBN-572" edge="1">
          <mxGeometry relative="1" as="geometry" />
        </mxCell>
        <mxCell id="wpcL7Qo-BOGiDXtRRDBN-580" style="rounded=0;orthogonalLoop=1;jettySize=auto;html=1;strokeWidth=2;fillColor=#e6d0de;gradientColor=#d5739d;strokeColor=#996185;entryX=0;entryY=0.5;entryDx=0;entryDy=0;" parent="wpcL7Qo-BOGiDXtRRDBN-66" target="wpcL7Qo-BOGiDXtRRDBN-576" edge="1">
          <mxGeometry relative="1" as="geometry">
            <mxPoint x="1934.9799999999993" y="225.59999999999997" as="sourcePoint" />
            <mxPoint x="1949.9799999999993" y="205.59999999999997" as="targetPoint" />
          </mxGeometry>
        </mxCell>
        <mxCell id="wpcL7Qo-BOGiDXtRRDBN-576" value="" style="rounded=0;whiteSpace=wrap;html=1;fillColor=#1ba1e2;strokeColor=#006EAF;fontColor=#ffffff;" parent="wpcL7Qo-BOGiDXtRRDBN-66" vertex="1">
          <mxGeometry x="1959.9799999999993" y="186.67999999999992" width="15" height="77.84" as="geometry" />
        </mxCell>
        <mxCell id="wpcL7Qo-BOGiDXtRRDBN-577" value="64" style="text;html=1;strokeColor=none;fillColor=none;align=center;verticalAlign=middle;whiteSpace=wrap;rounded=0;" parent="wpcL7Qo-BOGiDXtRRDBN-66" vertex="1">
          <mxGeometry x="1937.4799999999993" y="169.59" width="60" height="17.027027027027025" as="geometry" />
        </mxCell>
        <mxCell id="wpcL7Qo-BOGiDXtRRDBN-545" style="edgeStyle=orthogonalEdgeStyle;rounded=0;orthogonalLoop=1;jettySize=auto;html=1;entryX=0;entryY=0.5;entryDx=0;entryDy=0;strokeWidth=2;" parent="wpcL7Qo-BOGiDXtRRDBN-66" source="wpcL7Qo-BOGiDXtRRDBN-546" target="wpcL7Qo-BOGiDXtRRDBN-553" edge="1">
          <mxGeometry relative="1" as="geometry">
            <mxPoint x="2184.9799999999996" y="200" as="targetPoint" />
            <Array as="points">
              <mxPoint x="1820" y="283" />
              <mxPoint x="1820" y="225" />
            </Array>
          </mxGeometry>
        </mxCell>
        <mxCell id="wpcL7Qo-BOGiDXtRRDBN-592" style="edgeStyle=orthogonalEdgeStyle;rounded=0;orthogonalLoop=1;jettySize=auto;html=1;exitX=1;exitY=0.5;exitDx=0;exitDy=0;entryX=0;entryY=0.5;entryDx=0;entryDy=0;strokeWidth=2;fillColor=#f5f5f5;gradientColor=#b3b3b3;strokeColor=#738042;" parent="wpcL7Qo-BOGiDXtRRDBN-66" source="wpcL7Qo-BOGiDXtRRDBN-576" target="wpcL7Qo-BOGiDXtRRDBN-591" edge="1">
          <mxGeometry relative="1" as="geometry">
            <mxPoint x="2464.9799999999996" y="222.84000000000003" as="sourcePoint" />
          </mxGeometry>
        </mxCell>
        <mxCell id="wpcL7Qo-BOGiDXtRRDBN-593" value="" style="group" parent="wpcL7Qo-BOGiDXtRRDBN-66" vertex="1" connectable="0">
          <mxGeometry x="1989.9899999999998" y="123.16999999999996" width="60" height="186.82999999999998" as="geometry" />
        </mxCell>
        <mxCell id="wpcL7Qo-BOGiDXtRRDBN-594" value="32" style="text;html=1;strokeColor=none;fillColor=none;align=center;verticalAlign=middle;whiteSpace=wrap;rounded=0;" parent="wpcL7Qo-BOGiDXtRRDBN-593" vertex="1">
          <mxGeometry x="-15" width="60" height="30" as="geometry" />
        </mxCell>
        <mxCell id="wpcL7Qo-BOGiDXtRRDBN-591" value="" style="rounded=0;whiteSpace=wrap;html=1;fillColor=#1ba1e2;strokeColor=#006EAF;fontColor=#ffffff;" parent="wpcL7Qo-BOGiDXtRRDBN-593" vertex="1">
          <mxGeometry x="10" y="22.43" width="10" height="160" as="geometry" />
        </mxCell>
        <mxCell id="wpcL7Qo-BOGiDXtRRDBN-596" style="edgeStyle=orthogonalEdgeStyle;rounded=0;orthogonalLoop=1;jettySize=auto;html=1;strokeWidth=2;exitX=1;exitY=0.5;exitDx=0;exitDy=0;entryX=0;entryY=0.5;entryDx=0;entryDy=0;" parent="wpcL7Qo-BOGiDXtRRDBN-66" source="wpcL7Qo-BOGiDXtRRDBN-591" target="wpcL7Qo-BOGiDXtRRDBN-583" edge="1">
          <mxGeometry relative="1" as="geometry">
            <mxPoint x="2089.99" y="105" as="targetPoint" />
            <Array as="points">
              <mxPoint x="2040" y="226" />
              <mxPoint x="2040" y="105" />
            </Array>
          </mxGeometry>
        </mxCell>
        <mxCell id="wpcL7Qo-BOGiDXtRRDBN-587" value="" style="group" parent="wpcL7Qo-BOGiDXtRRDBN-66" vertex="1" connectable="0">
          <mxGeometry x="2119.99" y="0.11000000000002252" width="60" height="204.89" as="geometry" />
        </mxCell>
        <mxCell id="wpcL7Qo-BOGiDXtRRDBN-581" value="" style="group" parent="wpcL7Qo-BOGiDXtRRDBN-587" vertex="1" connectable="0">
          <mxGeometry x="-40" y="19.889999999999986" width="80.00000000000001" height="185" as="geometry" />
        </mxCell>
        <mxCell id="wpcL7Qo-BOGiDXtRRDBN-583" value="" style="rounded=0;whiteSpace=wrap;html=1;fillColor=#1ba1e2;strokeColor=#006EAF;fontColor=#ffffff;" parent="wpcL7Qo-BOGiDXtRRDBN-581" vertex="1">
          <mxGeometry y="5" width="10" height="160" as="geometry" />
        </mxCell>
        <mxCell id="wpcL7Qo-BOGiDXtRRDBN-598" value="" style="rounded=0;whiteSpace=wrap;html=1;fillColor=#1ba1e2;strokeColor=#006EAF;fontColor=#ffffff;" parent="wpcL7Qo-BOGiDXtRRDBN-581" vertex="1">
          <mxGeometry x="69.99000000000001" y="5" width="10.01" height="160" as="geometry" />
        </mxCell>
        <mxCell id="wpcL7Qo-BOGiDXtRRDBN-589" value="" style="group" parent="wpcL7Qo-BOGiDXtRRDBN-66" vertex="1" connectable="0">
          <mxGeometry x="2069.99" y="0.11000000000002252" width="114.98999999999978" height="185" as="geometry" />
        </mxCell>
        <mxCell id="wpcL7Qo-BOGiDXtRRDBN-590" value="64" style="text;html=1;strokeColor=none;fillColor=none;align=center;verticalAlign=middle;whiteSpace=wrap;rounded=0;" parent="wpcL7Qo-BOGiDXtRRDBN-589" vertex="1">
          <mxGeometry x="-10" width="60" height="30" as="geometry" />
        </mxCell>
        <mxCell id="wpcL7Qo-BOGiDXtRRDBN-584" value="" style="rounded=0;whiteSpace=wrap;html=1;fillColor=#1ba1e2;strokeColor=#006EAF;fontColor=#ffffff;" parent="wpcL7Qo-BOGiDXtRRDBN-589" vertex="1">
          <mxGeometry x="20" y="24.89" width="10" height="160" as="geometry" />
        </mxCell>
        <mxCell id="wpcL7Qo-BOGiDXtRRDBN-585" value="" style="rounded=0;whiteSpace=wrap;html=1;fillColor=#1ba1e2;strokeColor=#006EAF;fontColor=#ffffff;" parent="wpcL7Qo-BOGiDXtRRDBN-589" vertex="1">
          <mxGeometry x="50" y="24.889999999999986" width="10" height="160" as="geometry" />
        </mxCell>
        <mxCell id="wpcL7Qo-BOGiDXtRRDBN-586" style="edgeStyle=orthogonalEdgeStyle;rounded=0;orthogonalLoop=1;jettySize=auto;html=1;exitX=1;exitY=0.5;exitDx=0;exitDy=0;entryX=0;entryY=0.5;entryDx=0;entryDy=0;strokeWidth=2;fillColor=#e6d0de;gradientColor=#d5739d;strokeColor=#996185;" parent="wpcL7Qo-BOGiDXtRRDBN-589" source="wpcL7Qo-BOGiDXtRRDBN-584" target="wpcL7Qo-BOGiDXtRRDBN-585" edge="1">
          <mxGeometry relative="1" as="geometry" />
        </mxCell>
        <mxCell id="wpcL7Qo-BOGiDXtRRDBN-588" value="32" style="text;html=1;strokeColor=none;fillColor=none;align=center;verticalAlign=middle;whiteSpace=wrap;rounded=0;" parent="wpcL7Qo-BOGiDXtRRDBN-589" vertex="1">
          <mxGeometry x="25" width="60" height="30" as="geometry" />
        </mxCell>
        <mxCell id="wpcL7Qo-BOGiDXtRRDBN-600" value="32" style="text;html=1;strokeColor=none;fillColor=none;align=center;verticalAlign=middle;whiteSpace=wrap;rounded=0;" parent="wpcL7Qo-BOGiDXtRRDBN-589" vertex="1">
          <mxGeometry x="54.98999999999978" width="60" height="30" as="geometry" />
        </mxCell>
        <mxCell id="wpcL7Qo-BOGiDXtRRDBN-599" style="edgeStyle=orthogonalEdgeStyle;rounded=0;orthogonalLoop=1;jettySize=auto;html=1;entryX=0;entryY=0.5;entryDx=0;entryDy=0;strokeWidth=2;fillColor=#e6d0de;gradientColor=#d5739d;strokeColor=#996185;" parent="wpcL7Qo-BOGiDXtRRDBN-66" target="wpcL7Qo-BOGiDXtRRDBN-598" edge="1">
          <mxGeometry relative="1" as="geometry">
            <mxPoint x="2129.9799999999996" y="105" as="sourcePoint" />
          </mxGeometry>
        </mxCell>
        <mxCell id="wpcL7Qo-BOGiDXtRRDBN-72" style="edgeStyle=orthogonalEdgeStyle;rounded=0;orthogonalLoop=1;jettySize=auto;html=1;entryX=0;entryY=0.5;entryDx=0;entryDy=0;strokeWidth=2;exitX=1;exitY=0.25;exitDx=0;exitDy=0;" parent="1" source="wpcL7Qo-BOGiDXtRRDBN-60" target="wpcL7Qo-BOGiDXtRRDBN-67" edge="1">
          <mxGeometry relative="1" as="geometry">
            <mxPoint x="340.01" y="985" as="sourcePoint" />
          </mxGeometry>
        </mxCell>
        <mxCell id="wpcL7Qo-BOGiDXtRRDBN-73" style="edgeStyle=orthogonalEdgeStyle;rounded=0;orthogonalLoop=1;jettySize=auto;html=1;exitX=1;exitY=0.75;exitDx=0;exitDy=0;entryX=0;entryY=0.5;entryDx=0;entryDy=0;strokeWidth=2;" parent="1" source="wpcL7Qo-BOGiDXtRRDBN-48" target="wpcL7Qo-BOGiDXtRRDBN-67" edge="1">
          <mxGeometry relative="1" as="geometry">
            <mxPoint x="400.01" y="394.8899999999999" as="targetPoint" />
          </mxGeometry>
        </mxCell>
        <mxCell id="wpcL7Qo-BOGiDXtRRDBN-78" style="edgeStyle=orthogonalEdgeStyle;rounded=0;orthogonalLoop=1;jettySize=auto;html=1;strokeWidth=2;fillColor=#f5f5f5;gradientColor=#b3b3b3;strokeColor=#004C99;" parent="1" edge="1">
          <mxGeometry relative="1" as="geometry">
            <mxPoint x="45.00999999999999" y="109.8900000000001" as="sourcePoint" />
            <mxPoint x="85.00999999999999" y="109.8900000000001" as="targetPoint" />
            <Array as="points">
              <mxPoint x="65.00999999999999" y="109.8900000000001" />
              <mxPoint x="65.00999999999999" y="109.8900000000001" />
            </Array>
          </mxGeometry>
        </mxCell>
        <mxCell id="wpcL7Qo-BOGiDXtRRDBN-79" value="3x3 conv" style="text;html=1;strokeColor=none;fillColor=none;align=center;verticalAlign=middle;whiteSpace=wrap;rounded=0;fontColor=#004C99;" parent="1" vertex="1">
          <mxGeometry x="100.00999999999999" y="94.78000000000009" width="55" height="30" as="geometry" />
        </mxCell>
        <mxCell id="wpcL7Qo-BOGiDXtRRDBN-80" value="" style="group" parent="1" vertex="1" connectable="0">
          <mxGeometry x="380.01" y="164.89" width="60" height="90" as="geometry" />
        </mxCell>
        <mxCell id="wpcL7Qo-BOGiDXtRRDBN-93" value="" style="group" parent="wpcL7Qo-BOGiDXtRRDBN-80" vertex="1" connectable="0">
          <mxGeometry y="-10" width="60" height="100" as="geometry" />
        </mxCell>
        <mxCell id="wpcL7Qo-BOGiDXtRRDBN-81" value="" style="rounded=0;whiteSpace=wrap;html=1;fillColor=#1ba1e2;strokeColor=#006EAF;fontColor=#ffffff;" parent="wpcL7Qo-BOGiDXtRRDBN-93" vertex="1">
          <mxGeometry x="20" y="22.16" width="10" height="77.84" as="geometry" />
        </mxCell>
        <mxCell id="wpcL7Qo-BOGiDXtRRDBN-82" value="32" style="text;html=1;strokeColor=none;fillColor=none;align=center;verticalAlign=middle;whiteSpace=wrap;rounded=0;" parent="wpcL7Qo-BOGiDXtRRDBN-93" vertex="1">
          <mxGeometry x="-5" y="5.13" width="60" height="17.027027027027025" as="geometry" />
        </mxCell>
        <mxCell id="wpcL7Qo-BOGiDXtRRDBN-86" style="edgeStyle=orthogonalEdgeStyle;rounded=0;orthogonalLoop=1;jettySize=auto;html=1;exitX=1;exitY=0.25;exitDx=0;exitDy=0;entryX=0;entryY=0.5;entryDx=0;entryDy=0;strokeWidth=2;fillColor=#d5e8d4;gradientColor=#97d077;strokeColor=#00994D;" parent="1" source="wpcL7Qo-BOGiDXtRRDBN-48" target="wpcL7Qo-BOGiDXtRRDBN-81" edge="1">
          <mxGeometry relative="1" as="geometry" />
        </mxCell>
        <mxCell id="wpcL7Qo-BOGiDXtRRDBN-87" style="edgeStyle=orthogonalEdgeStyle;rounded=0;orthogonalLoop=1;jettySize=auto;html=1;exitX=1;exitY=0.25;exitDx=0;exitDy=0;strokeWidth=2;fillColor=#d5e8d4;gradientColor=#97d077;strokeColor=#00994D;" parent="1" edge="1">
          <mxGeometry relative="1" as="geometry">
            <mxPoint x="45.00999999999999" y="69.8900000000001" as="sourcePoint" />
            <mxPoint x="85.00999999999999" y="69.8900000000001" as="targetPoint" />
            <Array as="points">
              <mxPoint x="70.00999999999999" y="69.8900000000001" />
              <mxPoint x="70.00999999999999" y="69.8900000000001" />
            </Array>
          </mxGeometry>
        </mxCell>
        <mxCell id="wpcL7Qo-BOGiDXtRRDBN-88" value="1x1 conv" style="text;html=1;strokeColor=none;fillColor=none;align=center;verticalAlign=middle;whiteSpace=wrap;rounded=0;fontColor=#27ab69;" parent="1" vertex="1">
          <mxGeometry x="97.50999999999999" y="54.889999999999986" width="60" height="30" as="geometry" />
        </mxCell>
        <mxCell id="wpcL7Qo-BOGiDXtRRDBN-94" value="" style="group" parent="1" vertex="1" connectable="0">
          <mxGeometry x="420.01" y="164.89" width="60" height="90" as="geometry" />
        </mxCell>
        <mxCell id="wpcL7Qo-BOGiDXtRRDBN-95" value="" style="group" parent="wpcL7Qo-BOGiDXtRRDBN-94" vertex="1" connectable="0">
          <mxGeometry y="-10" width="60" height="100" as="geometry" />
        </mxCell>
        <mxCell id="wpcL7Qo-BOGiDXtRRDBN-96" value="" style="rounded=0;whiteSpace=wrap;html=1;fillColor=#1ba1e2;strokeColor=#006EAF;fontColor=#ffffff;" parent="wpcL7Qo-BOGiDXtRRDBN-95" vertex="1">
          <mxGeometry x="20" y="22.16" width="15" height="77.84" as="geometry" />
        </mxCell>
        <mxCell id="wpcL7Qo-BOGiDXtRRDBN-97" value="64" style="text;html=1;strokeColor=none;fillColor=none;align=center;verticalAlign=middle;whiteSpace=wrap;rounded=0;" parent="wpcL7Qo-BOGiDXtRRDBN-95" vertex="1">
          <mxGeometry x="-2.5" y="5.129999999999987" width="60" height="17.027027027027025" as="geometry" />
        </mxCell>
        <mxCell id="wpcL7Qo-BOGiDXtRRDBN-98" style="edgeStyle=orthogonalEdgeStyle;rounded=0;orthogonalLoop=1;jettySize=auto;html=1;entryX=0;entryY=0.5;entryDx=0;entryDy=0;strokeWidth=2;fillColor=#e6d0de;gradientColor=#d5739d;strokeColor=#996185;" parent="1" source="wpcL7Qo-BOGiDXtRRDBN-81" target="wpcL7Qo-BOGiDXtRRDBN-96" edge="1">
          <mxGeometry relative="1" as="geometry" />
        </mxCell>
        <mxCell id="wpcL7Qo-BOGiDXtRRDBN-99" value="" style="group" parent="1" vertex="1" connectable="0">
          <mxGeometry x="480.01" y="164.89" width="77.49" height="90" as="geometry" />
        </mxCell>
        <mxCell id="wpcL7Qo-BOGiDXtRRDBN-103" value="" style="group" parent="wpcL7Qo-BOGiDXtRRDBN-99" vertex="1" connectable="0">
          <mxGeometry y="-10" width="77.49" height="100" as="geometry" />
        </mxCell>
        <mxCell id="wpcL7Qo-BOGiDXtRRDBN-100" value="" style="group" parent="wpcL7Qo-BOGiDXtRRDBN-103" vertex="1" connectable="0">
          <mxGeometry x="-20.01" width="97.5" height="100" as="geometry" />
        </mxCell>
        <mxCell id="wpcL7Qo-BOGiDXtRRDBN-101" value="" style="rounded=0;whiteSpace=wrap;html=1;fillColor=#1ba1e2;strokeColor=#006EAF;fontColor=#ffffff;" parent="wpcL7Qo-BOGiDXtRRDBN-100" vertex="1">
          <mxGeometry x="20" y="22.16" width="15" height="77.84" as="geometry" />
        </mxCell>
        <mxCell id="wpcL7Qo-BOGiDXtRRDBN-102" value="64" style="text;html=1;strokeColor=none;fillColor=none;align=center;verticalAlign=middle;whiteSpace=wrap;rounded=0;" parent="wpcL7Qo-BOGiDXtRRDBN-100" vertex="1">
          <mxGeometry x="-2.5000000000000107" y="5.13" width="60" height="17.027027027027025" as="geometry" />
        </mxCell>
        <mxCell id="wpcL7Qo-BOGiDXtRRDBN-107" value="64" style="text;html=1;strokeColor=none;fillColor=none;align=center;verticalAlign=middle;whiteSpace=wrap;rounded=0;" parent="wpcL7Qo-BOGiDXtRRDBN-100" vertex="1">
          <mxGeometry x="37.49999999999999" y="6.49" width="60" height="17.027027027027025" as="geometry" />
        </mxCell>
        <mxCell id="wpcL7Qo-BOGiDXtRRDBN-106" value="" style="rounded=0;whiteSpace=wrap;html=1;fillColor=#1ba1e2;strokeColor=#006EAF;fontColor=#ffffff;" parent="wpcL7Qo-BOGiDXtRRDBN-103" vertex="1">
          <mxGeometry x="39.99" y="22.16" width="15" height="77.84" as="geometry" />
        </mxCell>
        <mxCell id="wpcL7Qo-BOGiDXtRRDBN-109" style="edgeStyle=orthogonalEdgeStyle;rounded=0;orthogonalLoop=1;jettySize=auto;html=1;exitX=1;exitY=0.5;exitDx=0;exitDy=0;fillColor=#e6d0de;gradientColor=#d5739d;strokeColor=#996185;strokeWidth=2;entryX=0;entryY=0.5;entryDx=0;entryDy=0;" parent="wpcL7Qo-BOGiDXtRRDBN-103" source="wpcL7Qo-BOGiDXtRRDBN-101" target="wpcL7Qo-BOGiDXtRRDBN-106" edge="1">
          <mxGeometry relative="1" as="geometry">
            <mxPoint x="59.99000000000001" y="61.315789473684276" as="targetPoint" />
          </mxGeometry>
        </mxCell>
        <mxCell id="wpcL7Qo-BOGiDXtRRDBN-108" style="edgeStyle=orthogonalEdgeStyle;rounded=0;orthogonalLoop=1;jettySize=auto;html=1;exitX=1;exitY=0.5;exitDx=0;exitDy=0;entryX=0;entryY=0.5;entryDx=0;entryDy=0;strokeWidth=2;fillColor=#e6d0de;gradientColor=#d5739d;strokeColor=#996185;" parent="1" source="wpcL7Qo-BOGiDXtRRDBN-96" target="wpcL7Qo-BOGiDXtRRDBN-101" edge="1">
          <mxGeometry relative="1" as="geometry" />
        </mxCell>
        <mxCell id="wpcL7Qo-BOGiDXtRRDBN-111" value="" style="rounded=0;whiteSpace=wrap;html=1;fillColor=#1ba1e2;strokeColor=#006EAF;fontColor=#ffffff;" parent="1" vertex="1">
          <mxGeometry x="400.01" y="1057.16" width="9.99" height="77.84" as="geometry" />
        </mxCell>
        <mxCell id="wpcL7Qo-BOGiDXtRRDBN-112" value="" style="group" parent="1" vertex="1" connectable="0">
          <mxGeometry x="420.01" y="1045" width="190" height="90" as="geometry" />
        </mxCell>
        <mxCell id="wpcL7Qo-BOGiDXtRRDBN-113" value="" style="group" parent="wpcL7Qo-BOGiDXtRRDBN-112" vertex="1" connectable="0">
          <mxGeometry y="-10" width="60" height="100" as="geometry" />
        </mxCell>
        <mxCell id="wpcL7Qo-BOGiDXtRRDBN-114" value="" style="rounded=0;whiteSpace=wrap;html=1;fillColor=#1ba1e2;strokeColor=#006EAF;fontColor=#ffffff;" parent="wpcL7Qo-BOGiDXtRRDBN-113" vertex="1">
          <mxGeometry x="20" y="22.16" width="15" height="77.84" as="geometry" />
        </mxCell>
        <mxCell id="wpcL7Qo-BOGiDXtRRDBN-115" value="64" style="text;html=1;strokeColor=none;fillColor=none;align=center;verticalAlign=middle;whiteSpace=wrap;rounded=0;" parent="wpcL7Qo-BOGiDXtRRDBN-113" vertex="1">
          <mxGeometry x="-2.5" y="3.8700000000000045" width="60" height="17.027027027027025" as="geometry" />
        </mxCell>
        <mxCell id="wpcL7Qo-BOGiDXtRRDBN-116" style="edgeStyle=orthogonalEdgeStyle;rounded=0;orthogonalLoop=1;jettySize=auto;html=1;entryX=0;entryY=0.5;entryDx=0;entryDy=0;strokeWidth=2;fillColor=#e6d0de;gradientColor=#d5739d;strokeColor=#996185;" parent="1" source="wpcL7Qo-BOGiDXtRRDBN-111" target="wpcL7Qo-BOGiDXtRRDBN-114" edge="1">
          <mxGeometry relative="1" as="geometry" />
        </mxCell>
        <mxCell id="wpcL7Qo-BOGiDXtRRDBN-117" value="" style="group" parent="1" vertex="1" connectable="0">
          <mxGeometry x="480.01" y="1045" width="89.99000000000001" height="90" as="geometry" />
        </mxCell>
        <mxCell id="wpcL7Qo-BOGiDXtRRDBN-118" value="" style="group" parent="wpcL7Qo-BOGiDXtRRDBN-117" vertex="1" connectable="0">
          <mxGeometry y="-10" width="89.99000000000001" height="100" as="geometry" />
        </mxCell>
        <mxCell id="wpcL7Qo-BOGiDXtRRDBN-119" value="" style="group" parent="wpcL7Qo-BOGiDXtRRDBN-118" vertex="1" connectable="0">
          <mxGeometry width="89.99000000000001" height="100" as="geometry" />
        </mxCell>
        <mxCell id="wpcL7Qo-BOGiDXtRRDBN-121" value="" style="rounded=0;whiteSpace=wrap;html=1;fillColor=#1ba1e2;strokeColor=#006EAF;fontColor=#ffffff;" parent="wpcL7Qo-BOGiDXtRRDBN-119" vertex="1">
          <mxGeometry y="22.16" width="15" height="77.84" as="geometry" />
        </mxCell>
        <mxCell id="wpcL7Qo-BOGiDXtRRDBN-122" value="64" style="text;html=1;strokeColor=none;fillColor=none;align=center;verticalAlign=middle;whiteSpace=wrap;rounded=0;" parent="wpcL7Qo-BOGiDXtRRDBN-119" vertex="1">
          <mxGeometry x="-22.5" y="3.87" width="60" height="17.027027027027025" as="geometry" />
        </mxCell>
        <mxCell id="wpcL7Qo-BOGiDXtRRDBN-123" value="" style="group" parent="wpcL7Qo-BOGiDXtRRDBN-119" vertex="1" connectable="0">
          <mxGeometry x="19.99000000000001" width="70" height="100" as="geometry" />
        </mxCell>
        <mxCell id="wpcL7Qo-BOGiDXtRRDBN-124" value="" style="group" parent="wpcL7Qo-BOGiDXtRRDBN-123" vertex="1" connectable="0">
          <mxGeometry width="60" height="100" as="geometry" />
        </mxCell>
        <mxCell id="wpcL7Qo-BOGiDXtRRDBN-125" value="" style="rounded=0;whiteSpace=wrap;html=1;fillColor=#1ba1e2;strokeColor=#006EAF;fontColor=#ffffff;" parent="wpcL7Qo-BOGiDXtRRDBN-124" vertex="1">
          <mxGeometry x="20" y="22.16" width="15" height="77.84" as="geometry" />
        </mxCell>
        <mxCell id="wpcL7Qo-BOGiDXtRRDBN-120" style="edgeStyle=orthogonalEdgeStyle;rounded=0;orthogonalLoop=1;jettySize=auto;html=1;exitX=1;exitY=0.5;exitDx=0;exitDy=0;fillColor=#e6d0de;gradientColor=#d5739d;strokeColor=#996185;strokeWidth=2;entryX=0;entryY=0.5;entryDx=0;entryDy=0;" parent="wpcL7Qo-BOGiDXtRRDBN-119" source="wpcL7Qo-BOGiDXtRRDBN-121" target="wpcL7Qo-BOGiDXtRRDBN-125" edge="1">
          <mxGeometry relative="1" as="geometry">
            <mxPoint x="80" y="61.31578947368416" as="targetPoint" />
          </mxGeometry>
        </mxCell>
        <mxCell id="kaieTg2gVCFy3QJMiGym-3" value="64" style="text;html=1;strokeColor=none;fillColor=none;align=center;verticalAlign=middle;whiteSpace=wrap;rounded=0;" parent="wpcL7Qo-BOGiDXtRRDBN-117" vertex="1">
          <mxGeometry x="17.49000000000001" y="-6.130000000000109" width="60" height="17.027027027027025" as="geometry" />
        </mxCell>
        <mxCell id="wpcL7Qo-BOGiDXtRRDBN-127" style="edgeStyle=orthogonalEdgeStyle;rounded=0;orthogonalLoop=1;jettySize=auto;html=1;exitX=1;exitY=0.5;exitDx=0;exitDy=0;entryX=0;entryY=0.5;entryDx=0;entryDy=0;strokeWidth=2;fillColor=#e6d0de;gradientColor=#d5739d;strokeColor=#996185;" parent="1" source="wpcL7Qo-BOGiDXtRRDBN-114" target="wpcL7Qo-BOGiDXtRRDBN-121" edge="1">
          <mxGeometry relative="1" as="geometry" />
        </mxCell>
        <mxCell id="wpcL7Qo-BOGiDXtRRDBN-128" style="edgeStyle=orthogonalEdgeStyle;rounded=0;orthogonalLoop=1;jettySize=auto;html=1;exitX=1;exitY=0.75;exitDx=0;exitDy=0;entryX=0;entryY=0.5;entryDx=0;entryDy=0;strokeWidth=2;strokeColor=#00994D;" parent="1" source="wpcL7Qo-BOGiDXtRRDBN-60" target="wpcL7Qo-BOGiDXtRRDBN-111" edge="1">
          <mxGeometry relative="1" as="geometry" />
        </mxCell>
        <mxCell id="wpcL7Qo-BOGiDXtRRDBN-129" value="32" style="text;html=1;strokeColor=none;fillColor=none;align=center;verticalAlign=middle;whiteSpace=wrap;rounded=0;" parent="1" vertex="1">
          <mxGeometry x="375.01" y="1035" width="60" height="25" as="geometry" />
        </mxCell>
        <mxCell id="wpcL7Qo-BOGiDXtRRDBN-139" style="edgeStyle=orthogonalEdgeStyle;rounded=0;orthogonalLoop=1;jettySize=auto;html=1;exitX=1;exitY=0.75;exitDx=0;exitDy=0;entryX=0;entryY=0.5;entryDx=0;entryDy=0;strokeWidth=2;" parent="1" source="wpcL7Qo-BOGiDXtRRDBN-106" target="wpcL7Qo-BOGiDXtRRDBN-133" edge="1">
          <mxGeometry relative="1" as="geometry" />
        </mxCell>
        <mxCell id="wpcL7Qo-BOGiDXtRRDBN-140" style="edgeStyle=orthogonalEdgeStyle;rounded=0;orthogonalLoop=1;jettySize=auto;html=1;exitX=1;exitY=0.25;exitDx=0;exitDy=0;entryX=0;entryY=0.5;entryDx=0;entryDy=0;strokeWidth=2;" parent="1" source="wpcL7Qo-BOGiDXtRRDBN-125" target="wpcL7Qo-BOGiDXtRRDBN-133" edge="1">
          <mxGeometry relative="1" as="geometry" />
        </mxCell>
        <mxCell id="wpcL7Qo-BOGiDXtRRDBN-150" value="" style="group" parent="1" vertex="1" connectable="0">
          <mxGeometry x="577.5" y="127.92999999999998" width="350" height="47.84" as="geometry" />
        </mxCell>
        <mxCell id="wpcL7Qo-BOGiDXtRRDBN-151" value="" style="group" parent="wpcL7Qo-BOGiDXtRRDBN-150" vertex="1" connectable="0">
          <mxGeometry width="350" height="47.84" as="geometry" />
        </mxCell>
        <mxCell id="wpcL7Qo-BOGiDXtRRDBN-152" value="" style="rounded=0;whiteSpace=wrap;html=1;fillColor=#1ba1e2;strokeColor=#006EAF;fontColor=#ffffff;" parent="wpcL7Qo-BOGiDXtRRDBN-151" vertex="1">
          <mxGeometry x="22.5" y="10.6" width="15" height="37.24" as="geometry" />
        </mxCell>
        <mxCell id="wpcL7Qo-BOGiDXtRRDBN-171" value="128" style="text;html=1;strokeColor=none;fillColor=none;align=center;verticalAlign=middle;whiteSpace=wrap;rounded=0;" parent="wpcL7Qo-BOGiDXtRRDBN-151" vertex="1">
          <mxGeometry x="122.49" y="-2.93" width="60" height="8.145729729729728" as="geometry" />
        </mxCell>
        <mxCell id="wpcL7Qo-BOGiDXtRRDBN-170" value="" style="rounded=0;whiteSpace=wrap;html=1;fillColor=#1ba1e2;strokeColor=#006EAF;fontColor=#ffffff;" parent="wpcL7Qo-BOGiDXtRRDBN-151" vertex="1">
          <mxGeometry x="142.49" y="10" width="20" height="37.24" as="geometry" />
        </mxCell>
        <mxCell id="wpcL7Qo-BOGiDXtRRDBN-160" value="" style="group" parent="wpcL7Qo-BOGiDXtRRDBN-151" vertex="1" connectable="0">
          <mxGeometry x="42.49000000000001" width="100" height="47.84" as="geometry" />
        </mxCell>
        <mxCell id="wpcL7Qo-BOGiDXtRRDBN-161" value="" style="group" parent="wpcL7Qo-BOGiDXtRRDBN-160" vertex="1" connectable="0">
          <mxGeometry x="20" width="80" height="47.84" as="geometry" />
        </mxCell>
        <mxCell id="wpcL7Qo-BOGiDXtRRDBN-162" value="" style="rounded=0;whiteSpace=wrap;html=1;fillColor=#1ba1e2;strokeColor=#006EAF;fontColor=#ffffff;" parent="wpcL7Qo-BOGiDXtRRDBN-161" vertex="1">
          <mxGeometry y="10.6" width="20" height="37.24" as="geometry" />
        </mxCell>
        <mxCell id="wpcL7Qo-BOGiDXtRRDBN-163" value="128" style="text;html=1;strokeColor=none;fillColor=none;align=center;verticalAlign=middle;whiteSpace=wrap;rounded=0;" parent="wpcL7Qo-BOGiDXtRRDBN-161" vertex="1">
          <mxGeometry x="-20" y="-2.93" width="60" height="8.145729729729728" as="geometry" />
        </mxCell>
        <mxCell id="wpcL7Qo-BOGiDXtRRDBN-166" value="" style="rounded=0;whiteSpace=wrap;html=1;fillColor=#1ba1e2;strokeColor=#006EAF;fontColor=#ffffff;" parent="wpcL7Qo-BOGiDXtRRDBN-161" vertex="1">
          <mxGeometry x="40" y="10.599999999999998" width="20" height="37.24" as="geometry" />
        </mxCell>
        <mxCell id="wpcL7Qo-BOGiDXtRRDBN-173" style="edgeStyle=orthogonalEdgeStyle;rounded=0;orthogonalLoop=1;jettySize=auto;html=1;exitX=1;exitY=0.5;exitDx=0;exitDy=0;entryX=0;entryY=0.5;entryDx=0;entryDy=0;fillColor=#e6d0de;gradientColor=#d5739d;strokeColor=#996185;strokeWidth=2;" parent="wpcL7Qo-BOGiDXtRRDBN-161" source="wpcL7Qo-BOGiDXtRRDBN-162" target="wpcL7Qo-BOGiDXtRRDBN-166" edge="1">
          <mxGeometry relative="1" as="geometry">
            <mxPoint x="100" y="30" as="targetPoint" />
          </mxGeometry>
        </mxCell>
        <mxCell id="wpcL7Qo-BOGiDXtRRDBN-167" value="128" style="text;html=1;strokeColor=none;fillColor=none;align=center;verticalAlign=middle;whiteSpace=wrap;rounded=0;" parent="wpcL7Qo-BOGiDXtRRDBN-161" vertex="1">
          <mxGeometry x="20" y="-2.9300000000000024" width="60" height="8.145729729729728" as="geometry" />
        </mxCell>
        <mxCell id="wpcL7Qo-BOGiDXtRRDBN-172" style="edgeStyle=orthogonalEdgeStyle;rounded=0;orthogonalLoop=1;jettySize=auto;html=1;exitX=1;exitY=0.5;exitDx=0;exitDy=0;strokeWidth=2;fillColor=#e6d0de;gradientColor=#d5739d;strokeColor=#996185;entryX=0;entryY=0.5;entryDx=0;entryDy=0;" parent="wpcL7Qo-BOGiDXtRRDBN-151" source="wpcL7Qo-BOGiDXtRRDBN-152" target="wpcL7Qo-BOGiDXtRRDBN-162" edge="1">
          <mxGeometry relative="1" as="geometry">
            <mxPoint x="82.5" y="29.056603773584925" as="targetPoint" />
          </mxGeometry>
        </mxCell>
        <mxCell id="wpcL7Qo-BOGiDXtRRDBN-174" style="edgeStyle=orthogonalEdgeStyle;rounded=0;orthogonalLoop=1;jettySize=auto;html=1;exitX=1;exitY=0.5;exitDx=0;exitDy=0;entryX=0;entryY=0.5;entryDx=0;entryDy=0;fillColor=#e6d0de;gradientColor=#d5739d;strokeColor=#996185;strokeWidth=2;" parent="wpcL7Qo-BOGiDXtRRDBN-151" source="wpcL7Qo-BOGiDXtRRDBN-166" target="wpcL7Qo-BOGiDXtRRDBN-170" edge="1">
          <mxGeometry relative="1" as="geometry" />
        </mxCell>
        <mxCell id="wpcL7Qo-BOGiDXtRRDBN-153" value="64" style="text;html=1;strokeColor=none;fillColor=none;align=center;verticalAlign=middle;whiteSpace=wrap;rounded=0;" parent="wpcL7Qo-BOGiDXtRRDBN-151" vertex="1">
          <mxGeometry y="-2.930000000000007" width="60" height="8.145729729729728" as="geometry" />
        </mxCell>
        <mxCell id="wpcL7Qo-BOGiDXtRRDBN-244" value="" style="rounded=0;whiteSpace=wrap;html=1;fillColor=#1ba1e2;strokeColor=#006EAF;fontColor=#ffffff;" parent="wpcL7Qo-BOGiDXtRRDBN-151" vertex="1">
          <mxGeometry x="222.5" y="-10.219999999999992" width="20" height="20.22" as="geometry" />
        </mxCell>
        <mxCell id="wpcL7Qo-BOGiDXtRRDBN-246" style="edgeStyle=orthogonalEdgeStyle;rounded=0;orthogonalLoop=1;jettySize=auto;html=1;exitX=1;exitY=0.25;exitDx=0;exitDy=0;entryX=0;entryY=0.5;entryDx=0;entryDy=0;strokeWidth=2;strokeColor=#00994D;" parent="wpcL7Qo-BOGiDXtRRDBN-151" source="wpcL7Qo-BOGiDXtRRDBN-170" target="wpcL7Qo-BOGiDXtRRDBN-244" edge="1">
          <mxGeometry relative="1" as="geometry">
            <mxPoint x="512.51" y="29.960000000000008" as="sourcePoint" />
            <mxPoint x="572.51" y="-13.039999999999992" as="targetPoint" />
          </mxGeometry>
        </mxCell>
        <mxCell id="wpcL7Qo-BOGiDXtRRDBN-154" style="edgeStyle=orthogonalEdgeStyle;rounded=0;orthogonalLoop=1;jettySize=auto;html=1;exitX=1;exitY=0.25;exitDx=0;exitDy=0;entryX=0;entryY=0.5;entryDx=0;entryDy=0;strokeWidth=2;strokeColor=#00994D;" parent="1" source="wpcL7Qo-BOGiDXtRRDBN-106" target="wpcL7Qo-BOGiDXtRRDBN-152" edge="1">
          <mxGeometry relative="1" as="geometry" />
        </mxCell>
        <mxCell id="wpcL7Qo-BOGiDXtRRDBN-159" style="edgeStyle=orthogonalEdgeStyle;rounded=0;orthogonalLoop=1;jettySize=auto;html=1;exitX=1;exitY=0.75;exitDx=0;exitDy=0;entryX=0;entryY=0.5;entryDx=0;entryDy=0;strokeWidth=2;strokeColor=#00994D;" parent="1" source="wpcL7Qo-BOGiDXtRRDBN-125" target="wpcL7Qo-BOGiDXtRRDBN-157" edge="1">
          <mxGeometry relative="1" as="geometry">
            <mxPoint x="600.01" y="1041.8899999999999" as="sourcePoint" />
          </mxGeometry>
        </mxCell>
        <mxCell id="wpcL7Qo-BOGiDXtRRDBN-175" style="edgeStyle=orthogonalEdgeStyle;rounded=0;orthogonalLoop=1;jettySize=auto;html=1;strokeWidth=2;fillColor=#e6d0de;gradientColor=#d5739d;strokeColor=#996185;entryX=0;entryY=0.5;entryDx=0;entryDy=0;exitX=1;exitY=0.5;exitDx=0;exitDy=0;" parent="1" source="wpcL7Qo-BOGiDXtRRDBN-157" target="wpcL7Qo-BOGiDXtRRDBN-178" edge="1">
          <mxGeometry relative="1" as="geometry">
            <mxPoint x="720.01" y="1156.966603773585" as="targetPoint" />
            <mxPoint x="700.01" y="1157" as="sourcePoint" />
          </mxGeometry>
        </mxCell>
        <mxCell id="wpcL7Qo-BOGiDXtRRDBN-180" value="" style="group" parent="1" vertex="1" connectable="0">
          <mxGeometry x="660" y="1126.84" width="100" height="47.84" as="geometry" />
        </mxCell>
        <mxCell id="wpcL7Qo-BOGiDXtRRDBN-181" value="" style="group" parent="wpcL7Qo-BOGiDXtRRDBN-180" vertex="1" connectable="0">
          <mxGeometry x="20" width="80" height="47.84" as="geometry" />
        </mxCell>
        <mxCell id="wpcL7Qo-BOGiDXtRRDBN-182" value="" style="rounded=0;whiteSpace=wrap;html=1;fillColor=#1ba1e2;strokeColor=#006EAF;fontColor=#ffffff;" parent="wpcL7Qo-BOGiDXtRRDBN-181" vertex="1">
          <mxGeometry y="10.6" width="20" height="37.24" as="geometry" />
        </mxCell>
        <mxCell id="wpcL7Qo-BOGiDXtRRDBN-184" value="" style="group" parent="1" vertex="1" connectable="0">
          <mxGeometry x="760" y="1127.6499999999999" width="100" height="47.84" as="geometry" />
        </mxCell>
        <mxCell id="wpcL7Qo-BOGiDXtRRDBN-186" value="" style="rounded=0;whiteSpace=wrap;html=1;fillColor=#1ba1e2;strokeColor=#006EAF;fontColor=#ffffff;" parent="wpcL7Qo-BOGiDXtRRDBN-184" vertex="1">
          <mxGeometry x="-40.01" y="9.97" width="20.01" height="37.24" as="geometry" />
        </mxCell>
        <mxCell id="wpcL7Qo-BOGiDXtRRDBN-188" style="edgeStyle=orthogonalEdgeStyle;rounded=0;orthogonalLoop=1;jettySize=auto;html=1;exitX=1;exitY=0.5;exitDx=0;exitDy=0;entryX=0;entryY=0.5;entryDx=0;entryDy=0;fillColor=#e6d0de;gradientColor=#d5739d;strokeColor=#996185;strokeWidth=2;" parent="1" source="wpcL7Qo-BOGiDXtRRDBN-178" target="wpcL7Qo-BOGiDXtRRDBN-182" edge="1">
          <mxGeometry relative="1" as="geometry">
            <mxPoint x="820.01" y="1157.9099999999999" as="targetPoint" />
          </mxGeometry>
        </mxCell>
        <mxCell id="wpcL7Qo-BOGiDXtRRDBN-189" style="edgeStyle=orthogonalEdgeStyle;rounded=0;orthogonalLoop=1;jettySize=auto;html=1;entryX=0;entryY=0.5;entryDx=0;entryDy=0;fillColor=#e6d0de;gradientColor=#d5739d;strokeColor=#996185;strokeWidth=2;" parent="1" source="wpcL7Qo-BOGiDXtRRDBN-182" target="wpcL7Qo-BOGiDXtRRDBN-186" edge="1">
          <mxGeometry relative="1" as="geometry" />
        </mxCell>
        <mxCell id="wpcL7Qo-BOGiDXtRRDBN-200" style="edgeStyle=orthogonalEdgeStyle;rounded=0;orthogonalLoop=1;jettySize=auto;html=1;exitX=1;exitY=0.75;exitDx=0;exitDy=0;entryX=0;entryY=0.5;entryDx=0;entryDy=0;strokeWidth=2;" parent="1" source="wpcL7Qo-BOGiDXtRRDBN-170" target="wpcL7Qo-BOGiDXtRRDBN-194" edge="1">
          <mxGeometry relative="1" as="geometry" />
        </mxCell>
        <mxCell id="wpcL7Qo-BOGiDXtRRDBN-201" style="edgeStyle=orthogonalEdgeStyle;rounded=0;orthogonalLoop=1;jettySize=auto;html=1;exitX=1;exitY=0.25;exitDx=0;exitDy=0;entryX=0;entryY=0.5;entryDx=0;entryDy=0;strokeWidth=2;" parent="1" source="wpcL7Qo-BOGiDXtRRDBN-186" target="wpcL7Qo-BOGiDXtRRDBN-194" edge="1">
          <mxGeometry relative="1" as="geometry">
            <mxPoint x="1010.01" y="854.89" as="targetPoint" />
          </mxGeometry>
        </mxCell>
        <mxCell id="wpcL7Qo-BOGiDXtRRDBN-231" value="" style="group" parent="1" vertex="1" connectable="0">
          <mxGeometry x="940" y="107.38999999999999" width="160" height="34.78" as="geometry" />
        </mxCell>
        <mxCell id="wpcL7Qo-BOGiDXtRRDBN-232" value="" style="group" parent="wpcL7Qo-BOGiDXtRRDBN-231" vertex="1" connectable="0">
          <mxGeometry y="4.78" width="30" height="30" as="geometry" />
        </mxCell>
        <mxCell id="wpcL7Qo-BOGiDXtRRDBN-233" value="" style="group" parent="wpcL7Qo-BOGiDXtRRDBN-232" vertex="1" connectable="0">
          <mxGeometry width="30" height="30" as="geometry" />
        </mxCell>
        <mxCell id="wpcL7Qo-BOGiDXtRRDBN-234" value="" style="rounded=0;whiteSpace=wrap;html=1;fillColor=#1ba1e2;strokeColor=#006EAF;fontColor=#ffffff;" parent="wpcL7Qo-BOGiDXtRRDBN-233" vertex="1">
          <mxGeometry y="4.78" width="30" height="20.22" as="geometry" />
        </mxCell>
        <mxCell id="wpcL7Qo-BOGiDXtRRDBN-235" value="256" style="text;html=1;strokeColor=none;fillColor=none;align=center;verticalAlign=middle;whiteSpace=wrap;rounded=0;" parent="wpcL7Qo-BOGiDXtRRDBN-231" vertex="1">
          <mxGeometry x="-15" width="60" height="4.77608108108108" as="geometry" />
        </mxCell>
        <mxCell id="wpcL7Qo-BOGiDXtRRDBN-247" style="edgeStyle=orthogonalEdgeStyle;rounded=0;orthogonalLoop=1;jettySize=auto;html=1;exitX=1;exitY=0.5;exitDx=0;exitDy=0;strokeWidth=2;fillColor=#e6d0de;gradientColor=#d5739d;strokeColor=#996185;entryX=0;entryY=0.5;entryDx=0;entryDy=0;" parent="1" source="wpcL7Qo-BOGiDXtRRDBN-244" target="wpcL7Qo-BOGiDXtRRDBN-239" edge="1">
          <mxGeometry relative="1" as="geometry">
            <mxPoint x="1070.01" y="164.89" as="targetPoint" />
            <mxPoint x="1170.01" y="177.71999999999997" as="sourcePoint" />
            <Array as="points">
              <mxPoint x="835" y="128" />
              <mxPoint x="835" y="128" />
            </Array>
          </mxGeometry>
        </mxCell>
        <mxCell id="wpcL7Qo-BOGiDXtRRDBN-248" style="edgeStyle=orthogonalEdgeStyle;rounded=0;orthogonalLoop=1;jettySize=auto;html=1;exitX=1;exitY=0.5;exitDx=0;exitDy=0;entryX=0;entryY=0.5;entryDx=0;entryDy=0;strokeWidth=2;fillColor=#e6d0de;gradientColor=#d5739d;strokeColor=#996185;" parent="1" source="wpcL7Qo-BOGiDXtRRDBN-239" target="wpcL7Qo-BOGiDXtRRDBN-219" edge="1">
          <mxGeometry relative="1" as="geometry">
            <Array as="points">
              <mxPoint x="885" y="128" />
              <mxPoint x="885" y="128" />
            </Array>
          </mxGeometry>
        </mxCell>
        <mxCell id="wpcL7Qo-BOGiDXtRRDBN-249" style="edgeStyle=orthogonalEdgeStyle;rounded=0;orthogonalLoop=1;jettySize=auto;html=1;entryX=0;entryY=0.5;entryDx=0;entryDy=0;strokeWidth=2;fillColor=#e6d0de;gradientColor=#d5739d;strokeColor=#996185;" parent="1" source="wpcL7Qo-BOGiDXtRRDBN-219" target="wpcL7Qo-BOGiDXtRRDBN-234" edge="1">
          <mxGeometry relative="1" as="geometry">
            <Array as="points">
              <mxPoint x="935" y="128" />
            </Array>
          </mxGeometry>
        </mxCell>
        <mxCell id="wpcL7Qo-BOGiDXtRRDBN-294" style="edgeStyle=orthogonalEdgeStyle;rounded=0;orthogonalLoop=1;jettySize=auto;html=1;exitX=1;exitY=0.75;exitDx=0;exitDy=0;entryX=0;entryY=0.5;entryDx=0;entryDy=0;strokeWidth=2;strokeColor=#00994D;" parent="1" source="wpcL7Qo-BOGiDXtRRDBN-186" target="kaieTg2gVCFy3QJMiGym-20" edge="1">
          <mxGeometry relative="1" as="geometry">
            <mxPoint x="1000.01" y="1227.83" as="sourcePoint" />
            <mxPoint x="1150.01" y="1197.83" as="targetPoint" />
          </mxGeometry>
        </mxCell>
        <mxCell id="wpcL7Qo-BOGiDXtRRDBN-305" style="edgeStyle=orthogonalEdgeStyle;rounded=0;orthogonalLoop=1;jettySize=auto;html=1;exitX=1;exitY=0.75;exitDx=0;exitDy=0;entryX=0;entryY=0.5;entryDx=0;entryDy=0;strokeWidth=2;" parent="1" source="wpcL7Qo-BOGiDXtRRDBN-234" target="wpcL7Qo-BOGiDXtRRDBN-302" edge="1">
          <mxGeometry relative="1" as="geometry">
            <Array as="points">
              <mxPoint x="1005" y="132" />
              <mxPoint x="1005" y="900" />
            </Array>
          </mxGeometry>
        </mxCell>
        <mxCell id="wpcL7Qo-BOGiDXtRRDBN-306" style="edgeStyle=orthogonalEdgeStyle;rounded=0;orthogonalLoop=1;jettySize=auto;html=1;exitX=1;exitY=0.25;exitDx=0;exitDy=0;entryX=0;entryY=0.5;entryDx=0;entryDy=0;strokeWidth=2;" parent="1" source="kaieTg2gVCFy3QJMiGym-23" target="wpcL7Qo-BOGiDXtRRDBN-302" edge="1">
          <mxGeometry relative="1" as="geometry">
            <mxPoint x="1700.01" y="734.8899999999998" as="targetPoint" />
          </mxGeometry>
        </mxCell>
        <mxCell id="wpcL7Qo-BOGiDXtRRDBN-319" value="" style="group" parent="1" vertex="1" connectable="0">
          <mxGeometry x="1000.01" y="80" width="469.99" height="40.11000000000003" as="geometry" />
        </mxCell>
        <mxCell id="wpcL7Qo-BOGiDXtRRDBN-320" value="" style="group" parent="wpcL7Qo-BOGiDXtRRDBN-319" vertex="1" connectable="0">
          <mxGeometry x="40" y="10.110000000000001" width="429.99" height="30.00000000000003" as="geometry" />
        </mxCell>
        <mxCell id="wpcL7Qo-BOGiDXtRRDBN-321" value="" style="group" parent="wpcL7Qo-BOGiDXtRRDBN-320" vertex="1" connectable="0">
          <mxGeometry width="429.99" height="30.00000000000003" as="geometry" />
        </mxCell>
        <mxCell id="wpcL7Qo-BOGiDXtRRDBN-322" value="" style="rounded=0;whiteSpace=wrap;html=1;fillColor=#1ba1e2;strokeColor=#006EAF;fontColor=#ffffff;" parent="wpcL7Qo-BOGiDXtRRDBN-321" vertex="1">
          <mxGeometry y="15" width="30" height="10" as="geometry" />
        </mxCell>
        <mxCell id="wpcL7Qo-BOGiDXtRRDBN-323" value="256" style="text;html=1;strokeColor=none;fillColor=none;align=center;verticalAlign=middle;whiteSpace=wrap;rounded=0;" parent="wpcL7Qo-BOGiDXtRRDBN-321" vertex="1">
          <mxGeometry x="-15" y="5.219999999999999" width="60" height="4.77608108108108" as="geometry" />
        </mxCell>
        <mxCell id="wpcL7Qo-BOGiDXtRRDBN-326" value="" style="group" parent="wpcL7Qo-BOGiDXtRRDBN-321" vertex="1" connectable="0">
          <mxGeometry x="60" y="2.842170943040401e-14" width="369.99" height="30" as="geometry" />
        </mxCell>
        <mxCell id="wpcL7Qo-BOGiDXtRRDBN-327" value="" style="group" parent="wpcL7Qo-BOGiDXtRRDBN-326" vertex="1" connectable="0">
          <mxGeometry x="-10.01" width="380" height="30" as="geometry" />
        </mxCell>
        <mxCell id="wpcL7Qo-BOGiDXtRRDBN-328" value="" style="rounded=0;whiteSpace=wrap;html=1;fillColor=#1ba1e2;strokeColor=#006EAF;fontColor=#ffffff;" parent="wpcL7Qo-BOGiDXtRRDBN-327" vertex="1">
          <mxGeometry y="15" width="40" height="10" as="geometry" />
        </mxCell>
        <mxCell id="wpcL7Qo-BOGiDXtRRDBN-329" value="512" style="text;html=1;strokeColor=none;fillColor=none;align=center;verticalAlign=middle;whiteSpace=wrap;rounded=0;" parent="wpcL7Qo-BOGiDXtRRDBN-327" vertex="1">
          <mxGeometry x="-40" y="5.219999999999999" width="120" height="4.77608108108108" as="geometry" />
        </mxCell>
        <mxCell id="wpcL7Qo-BOGiDXtRRDBN-339" value="" style="rounded=0;whiteSpace=wrap;html=1;fillColor=#1ba1e2;strokeColor=#006EAF;fontColor=#ffffff;" parent="wpcL7Qo-BOGiDXtRRDBN-327" vertex="1">
          <mxGeometry x="60" y="15" width="40" height="10" as="geometry" />
        </mxCell>
        <mxCell id="wpcL7Qo-BOGiDXtRRDBN-341" style="edgeStyle=orthogonalEdgeStyle;rounded=0;orthogonalLoop=1;jettySize=auto;html=1;entryX=0;entryY=0.5;entryDx=0;entryDy=0;strokeWidth=2;fillColor=#e6d0de;gradientColor=#d5739d;strokeColor=#996185;exitX=1;exitY=0.5;exitDx=0;exitDy=0;" parent="wpcL7Qo-BOGiDXtRRDBN-327" source="wpcL7Qo-BOGiDXtRRDBN-328" target="wpcL7Qo-BOGiDXtRRDBN-339" edge="1">
          <mxGeometry relative="1" as="geometry">
            <mxPoint x="415.0000000000002" y="-15.110000000000028" as="sourcePoint" />
            <Array as="points">
              <mxPoint x="55" y="20" />
              <mxPoint x="55" y="20" />
            </Array>
          </mxGeometry>
        </mxCell>
        <mxCell id="wpcL7Qo-BOGiDXtRRDBN-340" value="512" style="text;html=1;strokeColor=none;fillColor=none;align=center;verticalAlign=middle;whiteSpace=wrap;rounded=0;" parent="wpcL7Qo-BOGiDXtRRDBN-327" vertex="1">
          <mxGeometry x="20" y="5.219999999999985" width="120" height="4.77608108108108" as="geometry" />
        </mxCell>
        <mxCell id="wpcL7Qo-BOGiDXtRRDBN-353" value="512" style="text;html=1;strokeColor=none;fillColor=none;align=center;verticalAlign=middle;whiteSpace=wrap;rounded=0;" parent="wpcL7Qo-BOGiDXtRRDBN-327" vertex="1">
          <mxGeometry x="80" y="5.219999999999953" width="120" height="4.77608108108108" as="geometry" />
        </mxCell>
        <mxCell id="wpcL7Qo-BOGiDXtRRDBN-335" style="edgeStyle=orthogonalEdgeStyle;rounded=0;orthogonalLoop=1;jettySize=auto;html=1;exitX=1;exitY=0.5;exitDx=0;exitDy=0;entryX=0;entryY=0.5;entryDx=0;entryDy=0;strokeWidth=2;fillColor=#e6d0de;gradientColor=#d5739d;strokeColor=#996185;" parent="wpcL7Qo-BOGiDXtRRDBN-321" source="wpcL7Qo-BOGiDXtRRDBN-322" target="wpcL7Qo-BOGiDXtRRDBN-328" edge="1">
          <mxGeometry relative="1" as="geometry">
            <Array as="points">
              <mxPoint x="35" y="20" />
              <mxPoint x="35" y="20" />
            </Array>
          </mxGeometry>
        </mxCell>
        <mxCell id="wpcL7Qo-BOGiDXtRRDBN-324" style="edgeStyle=orthogonalEdgeStyle;rounded=0;orthogonalLoop=1;jettySize=auto;html=1;exitX=1;exitY=0.25;exitDx=0;exitDy=0;entryX=0;entryY=0.5;entryDx=0;entryDy=0;strokeWidth=2;strokeColor=#00994D;" parent="1" source="wpcL7Qo-BOGiDXtRRDBN-234" target="wpcL7Qo-BOGiDXtRRDBN-322" edge="1">
          <mxGeometry relative="1" as="geometry" />
        </mxCell>
        <mxCell id="wpcL7Qo-BOGiDXtRRDBN-336" value="" style="group" parent="1" vertex="1" connectable="0">
          <mxGeometry x="1280" y="120.11000000000001" width="320" height="34.78" as="geometry" />
        </mxCell>
        <mxCell id="wpcL7Qo-BOGiDXtRRDBN-349" value="" style="group" parent="1" vertex="1" connectable="0">
          <mxGeometry x="1460" y="142.26999999999998" width="320" height="34.78" as="geometry" />
        </mxCell>
        <mxCell id="wpcL7Qo-BOGiDXtRRDBN-354" style="edgeStyle=orthogonalEdgeStyle;rounded=0;orthogonalLoop=1;jettySize=auto;html=1;exitX=1;exitY=0.5;exitDx=0;exitDy=0;entryX=0;entryY=0.5;entryDx=0;entryDy=0;strokeWidth=2;fillColor=#e6d0de;gradientColor=#d5739d;strokeColor=#996185;" parent="1" source="wpcL7Qo-BOGiDXtRRDBN-339" target="wpcL7Qo-BOGiDXtRRDBN-352" edge="1">
          <mxGeometry relative="1" as="geometry">
            <mxPoint x="1840.0000000000002" y="105" as="sourcePoint" />
            <Array as="points">
              <mxPoint x="1205" y="110" />
              <mxPoint x="1205" y="110" />
            </Array>
          </mxGeometry>
        </mxCell>
        <mxCell id="wpcL7Qo-BOGiDXtRRDBN-355" value="" style="group" parent="1" vertex="1" connectable="0">
          <mxGeometry x="1540.01" y="1009.67" width="870" height="34.78" as="geometry" />
        </mxCell>
        <mxCell id="wpcL7Qo-BOGiDXtRRDBN-356" value="" style="group" parent="wpcL7Qo-BOGiDXtRRDBN-355" vertex="1" connectable="0">
          <mxGeometry y="4.780000000000001" width="870" height="30" as="geometry" />
        </mxCell>
        <mxCell id="wpcL7Qo-BOGiDXtRRDBN-357" value="" style="group" parent="wpcL7Qo-BOGiDXtRRDBN-356" vertex="1" connectable="0">
          <mxGeometry width="870" height="30" as="geometry" />
        </mxCell>
        <mxCell id="wpcL7Qo-BOGiDXtRRDBN-360" style="edgeStyle=orthogonalEdgeStyle;rounded=0;orthogonalLoop=1;jettySize=auto;html=1;exitX=1;exitY=0.75;exitDx=0;exitDy=0;entryX=0;entryY=0.5;entryDx=0;entryDy=0;strokeWidth=2;strokeColor=#00994D;" parent="1" source="kaieTg2gVCFy3QJMiGym-23" target="kaieTg2gVCFy3QJMiGym-46" edge="1">
          <mxGeometry relative="1" as="geometry">
            <mxPoint x="1680.01" y="1049.8899999999999" as="sourcePoint" />
          </mxGeometry>
        </mxCell>
        <mxCell id="wpcL7Qo-BOGiDXtRRDBN-401" style="edgeStyle=orthogonalEdgeStyle;rounded=0;orthogonalLoop=1;jettySize=auto;html=1;exitX=1;exitY=0.5;exitDx=0;exitDy=0;entryX=0;entryY=0.5;entryDx=0;entryDy=0;strokeWidth=2;" parent="1" source="wpcL7Qo-BOGiDXtRRDBN-352" target="wpcL7Qo-BOGiDXtRRDBN-382" edge="1">
          <mxGeometry relative="1" as="geometry">
            <mxPoint x="2755.01" y="585" as="targetPoint" />
          </mxGeometry>
        </mxCell>
        <mxCell id="wpcL7Qo-BOGiDXtRRDBN-402" style="edgeStyle=orthogonalEdgeStyle;rounded=0;orthogonalLoop=1;jettySize=auto;html=1;exitX=1;exitY=0.5;exitDx=0;exitDy=0;entryX=0;entryY=0.5;entryDx=0;entryDy=0;strokeWidth=2;" parent="1" source="kaieTg2gVCFy3QJMiGym-56" target="wpcL7Qo-BOGiDXtRRDBN-382" edge="1">
          <mxGeometry relative="1" as="geometry">
            <mxPoint x="2750.01" y="739.9999999999998" as="targetPoint" />
            <mxPoint x="2320.01" y="1122.1800000000003" as="sourcePoint" />
          </mxGeometry>
        </mxCell>
        <mxCell id="wpcL7Qo-BOGiDXtRRDBN-418" style="edgeStyle=orthogonalEdgeStyle;rounded=0;orthogonalLoop=1;jettySize=auto;html=1;exitX=1;exitY=0.5;exitDx=0;exitDy=0;entryX=0;entryY=0.5;entryDx=0;entryDy=0;strokeWidth=2;strokeColor=#738042;" parent="1" edge="1">
          <mxGeometry relative="1" as="geometry">
            <mxPoint x="45" y="169.8900000000001" as="sourcePoint" />
            <mxPoint x="85" y="169.8900000000001" as="targetPoint" />
            <Array as="points">
              <mxPoint x="65.00999999999999" y="169.8900000000001" />
              <mxPoint x="65.00999999999999" y="169.8900000000001" />
            </Array>
          </mxGeometry>
        </mxCell>
        <mxCell id="wpcL7Qo-BOGiDXtRRDBN-419" value="&lt;font&gt;3x3 conv transpose&lt;br&gt;&lt;/font&gt;" style="text;html=1;strokeColor=none;fillColor=none;align=center;verticalAlign=middle;whiteSpace=wrap;rounded=0;fontColor=#738042;" parent="1" vertex="1">
          <mxGeometry x="100.00999999999999" y="154.8900000000001" width="110" height="30" as="geometry" />
        </mxCell>
        <mxCell id="wpcL7Qo-BOGiDXtRRDBN-453" style="rounded=0;orthogonalLoop=1;jettySize=auto;html=1;exitX=1;exitY=0.5;exitDx=0;exitDy=0;strokeWidth=2;jumpStyle=arc;jumpSize=18;endArrow=none;endFill=0;edgeStyle=orthogonalEdgeStyle;" parent="1" source="wpcL7Qo-BOGiDXtRRDBN-75" edge="1">
          <mxGeometry relative="1" as="geometry">
            <mxPoint x="2420" y="670" as="targetPoint" />
            <Array as="points">
              <mxPoint x="2305" y="670" />
            </Array>
          </mxGeometry>
        </mxCell>
        <mxCell id="wpcL7Qo-BOGiDXtRRDBN-158" value="64" style="text;html=1;strokeColor=none;fillColor=none;align=center;verticalAlign=middle;whiteSpace=wrap;rounded=0;" parent="1" vertex="1">
          <mxGeometry x="577.51" y="1119.7800000000002" width="60" height="13.49" as="geometry" />
        </mxCell>
        <mxCell id="wpcL7Qo-BOGiDXtRRDBN-454" style="rounded=0;orthogonalLoop=1;jettySize=auto;html=1;strokeWidth=2;jumpSize=18;jumpStyle=arc;endArrow=none;endFill=0;edgeStyle=orthogonalEdgeStyle;" parent="1" source="wpcL7Qo-BOGiDXtRRDBN-147" edge="1">
          <mxGeometry relative="1" as="geometry">
            <mxPoint x="2200" y="790" as="targetPoint" />
          </mxGeometry>
        </mxCell>
        <mxCell id="wpcL7Qo-BOGiDXtRRDBN-606" style="edgeStyle=orthogonalEdgeStyle;rounded=0;orthogonalLoop=1;jettySize=auto;html=1;entryX=0;entryY=0.5;entryDx=0;entryDy=0;strokeWidth=2;fillColor=#b0e3e6;strokeColor=#0E8088;" parent="1" edge="1">
          <mxGeometry relative="1" as="geometry">
            <mxPoint x="45.00999999999999" y="89.77999999999997" as="sourcePoint" />
            <mxPoint x="83.00999999999999" y="89.77999999999997" as="targetPoint" />
          </mxGeometry>
        </mxCell>
        <mxCell id="wpcL7Qo-BOGiDXtRRDBN-607" value="1x1 conv, Tanh" style="text;html=1;strokeColor=none;fillColor=none;align=center;verticalAlign=middle;whiteSpace=wrap;rounded=0;fontColor=#0E8088;" parent="1" vertex="1">
          <mxGeometry x="100.00999999999999" y="74.88999999999999" width="88.75" height="30" as="geometry" />
        </mxCell>
        <mxCell id="wpcL7Qo-BOGiDXtRRDBN-19" style="edgeStyle=orthogonalEdgeStyle;rounded=0;orthogonalLoop=1;jettySize=auto;html=1;fillColor=#ffe6cc;strokeColor=#d79b00;strokeWidth=2;jumpStyle=arc;jumpSize=18;exitX=1;exitY=0.5;exitDx=0;exitDy=0;entryX=0;entryY=0.5;entryDx=0;entryDy=0;" parent="1" source="wpcL7Qo-BOGiDXtRRDBN-9" target="wpcL7Qo-BOGiDXtRRDBN-17" edge="1">
          <mxGeometry relative="1" as="geometry">
            <mxPoint x="290" y="535" as="sourcePoint" />
            <mxPoint x="2605" y="540" as="targetPoint" />
            <Array as="points">
              <mxPoint x="335" y="620" />
              <mxPoint x="335" y="535" />
            </Array>
          </mxGeometry>
        </mxCell>
        <mxCell id="wpcL7Qo-BOGiDXtRRDBN-30" value="32" style="text;html=1;strokeColor=none;fillColor=none;align=center;verticalAlign=middle;whiteSpace=wrap;rounded=0;" parent="1" vertex="1">
          <mxGeometry x="215.01" y="229.67000000000002" width="60" height="30" as="geometry" />
        </mxCell>
        <mxCell id="wpcL7Qo-BOGiDXtRRDBN-23" value="" style="rounded=0;whiteSpace=wrap;html=1;fillColor=#1ba1e2;strokeColor=#006EAF;fontColor=#ffffff;" parent="1" vertex="1">
          <mxGeometry x="240.01" y="254.89" width="9.99" height="160" as="geometry" />
        </mxCell>
        <mxCell id="wpcL7Qo-BOGiDXtRRDBN-157" value="" style="rounded=0;whiteSpace=wrap;html=1;fillColor=#1ba1e2;strokeColor=#006EAF;fontColor=#ffffff;" parent="1" vertex="1">
          <mxGeometry x="600.01" y="1137.53" width="15" height="38.69" as="geometry" />
        </mxCell>
        <mxCell id="wpcL7Qo-BOGiDXtRRDBN-178" value="" style="rounded=0;whiteSpace=wrap;html=1;fillColor=#1ba1e2;strokeColor=#006EAF;fontColor=#ffffff;" parent="1" vertex="1">
          <mxGeometry x="639.998" y="1138.25" width="20" height="37.24" as="geometry" />
        </mxCell>
        <mxCell id="wpcL7Qo-BOGiDXtRRDBN-179" value="128" style="text;html=1;strokeColor=none;fillColor=none;align=center;verticalAlign=middle;whiteSpace=wrap;rounded=0;" parent="1" vertex="1">
          <mxGeometry x="634.9970000000001" y="1122.92" width="29.994000000000003" height="8.145729729729728" as="geometry" />
        </mxCell>
        <mxCell id="wpcL7Qo-BOGiDXtRRDBN-183" value="128" style="text;html=1;strokeColor=none;fillColor=none;align=center;verticalAlign=middle;whiteSpace=wrap;rounded=0;" parent="1" vertex="1">
          <mxGeometry x="660" y="1122.35" width="60" height="8.145729729729728" as="geometry" />
        </mxCell>
        <mxCell id="wpcL7Qo-BOGiDXtRRDBN-187" value="128" style="text;html=1;strokeColor=none;fillColor=none;align=center;verticalAlign=middle;whiteSpace=wrap;rounded=0;" parent="1" vertex="1">
          <mxGeometry x="700" y="1122.35" width="60" height="8.145729729729728" as="geometry" />
        </mxCell>
        <mxCell id="wpcL7Qo-BOGiDXtRRDBN-245" value="128" style="text;html=1;strokeColor=none;fillColor=none;align=center;verticalAlign=middle;whiteSpace=wrap;rounded=0;" parent="1" vertex="1">
          <mxGeometry x="795" y="107.38999999999999" width="30" height="4.77608108108108" as="geometry" />
        </mxCell>
        <mxCell id="wpcL7Qo-BOGiDXtRRDBN-239" value="" style="rounded=0;whiteSpace=wrap;html=1;fillColor=#1ba1e2;strokeColor=#006EAF;fontColor=#ffffff;" parent="1" vertex="1">
          <mxGeometry x="840" y="117.71" width="30" height="20.22" as="geometry" />
        </mxCell>
        <mxCell id="wpcL7Qo-BOGiDXtRRDBN-240" value="256" style="text;html=1;strokeColor=none;fillColor=none;align=center;verticalAlign=middle;whiteSpace=wrap;rounded=0;" parent="1" vertex="1">
          <mxGeometry x="825" y="107.38999999999997" width="60" height="4.77608108108108" as="geometry" />
        </mxCell>
        <mxCell id="wpcL7Qo-BOGiDXtRRDBN-219" value="" style="rounded=0;whiteSpace=wrap;html=1;fillColor=#1ba1e2;strokeColor=#006EAF;fontColor=#ffffff;" parent="1" vertex="1">
          <mxGeometry x="890" y="117.71" width="30" height="20.22" as="geometry" />
        </mxCell>
        <mxCell id="wpcL7Qo-BOGiDXtRRDBN-220" value="256" style="text;html=1;strokeColor=none;fillColor=none;align=center;verticalAlign=middle;whiteSpace=wrap;rounded=0;" parent="1" vertex="1">
          <mxGeometry x="875" y="107.38999999999999" width="60" height="4.77608108108108" as="geometry" />
        </mxCell>
        <mxCell id="kaieTg2gVCFy3QJMiGym-20" value="" style="rounded=0;whiteSpace=wrap;html=1;fillColor=#1ba1e2;strokeColor=#006EAF;fontColor=#ffffff;" parent="1" vertex="1">
          <mxGeometry x="800" y="1175.32" width="20" height="20.22" as="geometry" />
        </mxCell>
        <mxCell id="kaieTg2gVCFy3QJMiGym-21" value="" style="group" parent="1" vertex="1" connectable="0">
          <mxGeometry x="940" y="1169.78" width="30" height="30" as="geometry" />
        </mxCell>
        <mxCell id="kaieTg2gVCFy3QJMiGym-22" value="" style="group" parent="kaieTg2gVCFy3QJMiGym-21" vertex="1" connectable="0">
          <mxGeometry width="30" height="30" as="geometry" />
        </mxCell>
        <mxCell id="kaieTg2gVCFy3QJMiGym-23" value="" style="rounded=0;whiteSpace=wrap;html=1;fillColor=#1ba1e2;strokeColor=#006EAF;fontColor=#ffffff;" parent="kaieTg2gVCFy3QJMiGym-22" vertex="1">
          <mxGeometry y="4.78" width="30" height="20.22" as="geometry" />
        </mxCell>
        <mxCell id="kaieTg2gVCFy3QJMiGym-24" value="256" style="text;html=1;strokeColor=none;fillColor=none;align=center;verticalAlign=middle;whiteSpace=wrap;rounded=0;" parent="1" vertex="1">
          <mxGeometry x="925" y="1165" width="60" height="4.77608108108108" as="geometry" />
        </mxCell>
        <mxCell id="kaieTg2gVCFy3QJMiGym-25" style="edgeStyle=orthogonalEdgeStyle;rounded=0;orthogonalLoop=1;jettySize=auto;html=1;exitX=1;exitY=0.5;exitDx=0;exitDy=0;strokeWidth=2;fillColor=#e6d0de;gradientColor=#d5739d;strokeColor=#996185;entryX=0;entryY=0.5;entryDx=0;entryDy=0;" parent="1" source="kaieTg2gVCFy3QJMiGym-20" target="kaieTg2gVCFy3QJMiGym-29" edge="1">
          <mxGeometry relative="1" as="geometry">
            <mxPoint x="1070.01" y="1222.5" as="targetPoint" />
            <mxPoint x="1170.01" y="1235.33" as="sourcePoint" />
            <Array as="points">
              <mxPoint x="835" y="1185.6100000000001" />
              <mxPoint x="835" y="1185.6100000000001" />
            </Array>
          </mxGeometry>
        </mxCell>
        <mxCell id="kaieTg2gVCFy3QJMiGym-26" style="edgeStyle=orthogonalEdgeStyle;rounded=0;orthogonalLoop=1;jettySize=auto;html=1;exitX=1;exitY=0.5;exitDx=0;exitDy=0;entryX=0;entryY=0.5;entryDx=0;entryDy=0;strokeWidth=2;fillColor=#e6d0de;gradientColor=#d5739d;strokeColor=#996185;" parent="1" source="kaieTg2gVCFy3QJMiGym-29" target="kaieTg2gVCFy3QJMiGym-31" edge="1">
          <mxGeometry relative="1" as="geometry">
            <Array as="points">
              <mxPoint x="885" y="1185.6100000000001" />
              <mxPoint x="885" y="1185.6100000000001" />
            </Array>
          </mxGeometry>
        </mxCell>
        <mxCell id="kaieTg2gVCFy3QJMiGym-27" style="edgeStyle=orthogonalEdgeStyle;rounded=0;orthogonalLoop=1;jettySize=auto;html=1;entryX=0;entryY=0.5;entryDx=0;entryDy=0;strokeWidth=2;fillColor=#e6d0de;gradientColor=#d5739d;strokeColor=#996185;" parent="1" source="kaieTg2gVCFy3QJMiGym-31" target="kaieTg2gVCFy3QJMiGym-23" edge="1">
          <mxGeometry relative="1" as="geometry">
            <Array as="points">
              <mxPoint x="935" y="1185.6100000000001" />
            </Array>
          </mxGeometry>
        </mxCell>
        <mxCell id="kaieTg2gVCFy3QJMiGym-28" value="128" style="text;html=1;strokeColor=none;fillColor=none;align=center;verticalAlign=middle;whiteSpace=wrap;rounded=0;" parent="1" vertex="1">
          <mxGeometry x="795" y="1165" width="30" height="4.77608108108108" as="geometry" />
        </mxCell>
        <mxCell id="kaieTg2gVCFy3QJMiGym-29" value="" style="rounded=0;whiteSpace=wrap;html=1;fillColor=#1ba1e2;strokeColor=#006EAF;fontColor=#ffffff;" parent="1" vertex="1">
          <mxGeometry x="840" y="1175.32" width="30" height="20.22" as="geometry" />
        </mxCell>
        <mxCell id="kaieTg2gVCFy3QJMiGym-30" value="256" style="text;html=1;strokeColor=none;fillColor=none;align=center;verticalAlign=middle;whiteSpace=wrap;rounded=0;" parent="1" vertex="1">
          <mxGeometry x="825" y="1165" width="60" height="4.77608108108108" as="geometry" />
        </mxCell>
        <mxCell id="kaieTg2gVCFy3QJMiGym-31" value="" style="rounded=0;whiteSpace=wrap;html=1;fillColor=#1ba1e2;strokeColor=#006EAF;fontColor=#ffffff;" parent="1" vertex="1">
          <mxGeometry x="890" y="1175.32" width="30" height="20.22" as="geometry" />
        </mxCell>
        <mxCell id="kaieTg2gVCFy3QJMiGym-32" value="256" style="text;html=1;strokeColor=none;fillColor=none;align=center;verticalAlign=middle;whiteSpace=wrap;rounded=0;" parent="1" vertex="1">
          <mxGeometry x="875" y="1165" width="60" height="4.77608108108108" as="geometry" />
        </mxCell>
        <mxCell id="wpcL7Qo-BOGiDXtRRDBN-352" value="" style="rounded=0;whiteSpace=wrap;html=1;fillColor=#1ba1e2;strokeColor=#006EAF;fontColor=#ffffff;" parent="1" vertex="1">
          <mxGeometry x="1210" y="105.11" width="40" height="10" as="geometry" />
        </mxCell>
        <mxCell id="kaieTg2gVCFy3QJMiGym-46" value="" style="rounded=0;whiteSpace=wrap;html=1;fillColor=#1ba1e2;strokeColor=#006EAF;fontColor=#ffffff;" parent="1" vertex="1">
          <mxGeometry x="1040.01" y="1194.6399999999999" width="30" height="10" as="geometry" />
        </mxCell>
        <mxCell id="kaieTg2gVCFy3QJMiGym-47" value="256" style="text;html=1;strokeColor=none;fillColor=none;align=center;verticalAlign=middle;whiteSpace=wrap;rounded=0;" parent="1" vertex="1">
          <mxGeometry x="1025.01" y="1184.86" width="60" height="4.77608108108108" as="geometry" />
        </mxCell>
        <mxCell id="kaieTg2gVCFy3QJMiGym-48" value="" style="rounded=0;whiteSpace=wrap;html=1;fillColor=#1ba1e2;strokeColor=#006EAF;fontColor=#ffffff;" parent="1" vertex="1">
          <mxGeometry x="1090" y="1194.64" width="40" height="10" as="geometry" />
        </mxCell>
        <mxCell id="kaieTg2gVCFy3QJMiGym-49" value="512" style="text;html=1;strokeColor=none;fillColor=none;align=center;verticalAlign=middle;whiteSpace=wrap;rounded=0;" parent="1" vertex="1">
          <mxGeometry x="1050" y="1184.86" width="120" height="4.77608108108108" as="geometry" />
        </mxCell>
        <mxCell id="kaieTg2gVCFy3QJMiGym-50" value="" style="rounded=0;whiteSpace=wrap;html=1;fillColor=#1ba1e2;strokeColor=#006EAF;fontColor=#ffffff;" parent="1" vertex="1">
          <mxGeometry x="1150" y="1194.64" width="40" height="10" as="geometry" />
        </mxCell>
        <mxCell id="kaieTg2gVCFy3QJMiGym-51" style="edgeStyle=orthogonalEdgeStyle;rounded=0;orthogonalLoop=1;jettySize=auto;html=1;entryX=0;entryY=0.5;entryDx=0;entryDy=0;strokeWidth=2;fillColor=#e6d0de;gradientColor=#d5739d;strokeColor=#996185;exitX=1;exitY=0.5;exitDx=0;exitDy=0;" parent="1" source="kaieTg2gVCFy3QJMiGym-48" target="kaieTg2gVCFy3QJMiGym-50" edge="1">
          <mxGeometry relative="1" as="geometry">
            <mxPoint x="1505.0000000000002" y="1164.53" as="sourcePoint" />
            <Array as="points">
              <mxPoint x="1145" y="1199.64" />
              <mxPoint x="1145" y="1199.64" />
            </Array>
          </mxGeometry>
        </mxCell>
        <mxCell id="kaieTg2gVCFy3QJMiGym-52" value="512" style="text;html=1;strokeColor=none;fillColor=none;align=center;verticalAlign=middle;whiteSpace=wrap;rounded=0;" parent="1" vertex="1">
          <mxGeometry x="1110" y="1184.86" width="120" height="4.77608108108108" as="geometry" />
        </mxCell>
        <mxCell id="kaieTg2gVCFy3QJMiGym-53" value="512" style="text;html=1;strokeColor=none;fillColor=none;align=center;verticalAlign=middle;whiteSpace=wrap;rounded=0;" parent="1" vertex="1">
          <mxGeometry x="1170" y="1184.86" width="120" height="4.77608108108108" as="geometry" />
        </mxCell>
        <mxCell id="kaieTg2gVCFy3QJMiGym-54" style="edgeStyle=orthogonalEdgeStyle;rounded=0;orthogonalLoop=1;jettySize=auto;html=1;exitX=1;exitY=0.5;exitDx=0;exitDy=0;entryX=0;entryY=0.5;entryDx=0;entryDy=0;strokeWidth=2;fillColor=#e6d0de;gradientColor=#d5739d;strokeColor=#996185;" parent="1" source="kaieTg2gVCFy3QJMiGym-46" target="kaieTg2gVCFy3QJMiGym-48" edge="1">
          <mxGeometry relative="1" as="geometry">
            <Array as="points">
              <mxPoint x="1075.01" y="1199.6399999999999" />
              <mxPoint x="1075.01" y="1199.6399999999999" />
            </Array>
          </mxGeometry>
        </mxCell>
        <mxCell id="kaieTg2gVCFy3QJMiGym-55" style="edgeStyle=orthogonalEdgeStyle;rounded=0;orthogonalLoop=1;jettySize=auto;html=1;exitX=1;exitY=0.5;exitDx=0;exitDy=0;entryX=0;entryY=0.5;entryDx=0;entryDy=0;strokeWidth=2;fillColor=#e6d0de;gradientColor=#d5739d;strokeColor=#996185;" parent="1" source="kaieTg2gVCFy3QJMiGym-50" target="kaieTg2gVCFy3QJMiGym-56" edge="1">
          <mxGeometry relative="1" as="geometry">
            <mxPoint x="1840.0000000000002" y="1194.53" as="sourcePoint" />
            <Array as="points">
              <mxPoint x="1205" y="1199.53" />
              <mxPoint x="1205" y="1199.53" />
            </Array>
          </mxGeometry>
        </mxCell>
        <mxCell id="kaieTg2gVCFy3QJMiGym-56" value="" style="rounded=0;whiteSpace=wrap;html=1;fillColor=#1ba1e2;strokeColor=#006EAF;fontColor=#ffffff;" parent="1" vertex="1">
          <mxGeometry x="1210" y="1194.6399999999999" width="40" height="10" as="geometry" />
        </mxCell>
        <mxCell id="kaieTg2gVCFy3QJMiGym-57" value="" style="rounded=0;orthogonalLoop=1;jettySize=auto;html=1;strokeWidth=2;jumpStyle=arc;jumpSize=18;endArrow=none;endFill=0;" parent="1" source="wpcL7Qo-BOGiDXtRRDBN-204" edge="1">
          <mxGeometry relative="1" as="geometry">
            <mxPoint x="1980" y="849" as="targetPoint" />
            <mxPoint x="880" y="849" as="sourcePoint" />
          </mxGeometry>
        </mxCell>
        <mxCell id="wpcL7Qo-BOGiDXtRRDBN-400" style="edgeStyle=orthogonalEdgeStyle;rounded=0;orthogonalLoop=1;jettySize=auto;html=1;strokeWidth=2;strokeColor=#004C99;entryX=0;entryY=0.5;entryDx=0;entryDy=0;" parent="1" target="wpcL7Qo-BOGiDXtRRDBN-398" edge="1">
          <mxGeometry relative="1" as="geometry">
            <mxPoint x="1575" y="940" as="sourcePoint" />
            <mxPoint x="1960.0000000000002" y="940.1100000000002" as="targetPoint" />
          </mxGeometry>
        </mxCell>
        <mxCell id="wpcL7Qo-BOGiDXtRRDBN-398" value="" style="rounded=0;whiteSpace=wrap;html=1;fillColor=#1ba1e2;strokeColor=#006EAF;fontColor=#ffffff;" parent="1" vertex="1">
          <mxGeometry x="1600.0000000000002" y="935" width="40" height="10" as="geometry" />
        </mxCell>
        <mxCell id="wpcL7Qo-BOGiDXtRRDBN-417" style="edgeStyle=orthogonalEdgeStyle;rounded=0;orthogonalLoop=1;jettySize=auto;html=1;exitX=1;exitY=0.5;exitDx=0;exitDy=0;entryX=0;entryY=0.5;entryDx=0;entryDy=0;strokeWidth=2;strokeColor=#738042;" parent="1" source="wpcL7Qo-BOGiDXtRRDBN-398" target="wpcL7Qo-BOGiDXtRRDBN-415" edge="1">
          <mxGeometry relative="1" as="geometry">
            <mxPoint x="1980.0000000000002" y="920" as="targetPoint" />
          </mxGeometry>
        </mxCell>
        <mxCell id="wpcL7Qo-BOGiDXtRRDBN-399" value="512" style="text;html=1;strokeColor=none;fillColor=none;align=center;verticalAlign=middle;whiteSpace=wrap;rounded=0;" parent="1" vertex="1">
          <mxGeometry x="1560.0000000000002" y="925.11" width="120" height="5.79" as="geometry" />
        </mxCell>
        <mxCell id="kaieTg2gVCFy3QJMiGym-209" value="z" style="rounded=0;whiteSpace=wrap;html=1;" parent="1" vertex="1">
          <mxGeometry x="1560" y="930.11" width="20" height="20" as="geometry" />
        </mxCell>
        <mxCell id="kaieTg2gVCFy3QJMiGym-212" style="edgeStyle=orthogonalEdgeStyle;rounded=0;orthogonalLoop=1;jettySize=auto;html=1;exitX=1;exitY=0.5;exitDx=0;exitDy=0;entryX=0;entryY=0.5;entryDx=0;entryDy=0;strokeWidth=2;" parent="1" source="kaieTg2gVCFy3QJMiGym-194" target="kaieTg2gVCFy3QJMiGym-209" edge="1">
          <mxGeometry relative="1" as="geometry" />
        </mxCell>
        <mxCell id="wpcL7Qo-BOGiDXtRRDBN-17" value="&lt;div align=&quot;justify&quot;&gt;+&lt;/div&gt;" style="ellipse;whiteSpace=wrap;html=1;aspect=fixed;align=center;fontStyle=1" parent="1" vertex="1">
          <mxGeometry x="2590" y="525" width="20" height="20" as="geometry" />
        </mxCell>
        <mxCell id="wpcL7Qo-BOGiDXtRRDBN-612" style="edgeStyle=orthogonalEdgeStyle;rounded=0;orthogonalLoop=1;jettySize=auto;html=1;strokeWidth=2;entryX=0;entryY=0.5;entryDx=0;entryDy=0;" parent="1" source="wpcL7Qo-BOGiDXtRRDBN-17" target="wpcL7Qo-BOGiDXtRRDBN-609" edge="1">
          <mxGeometry relative="1" as="geometry">
            <mxPoint x="3109.99" y="515" as="targetPoint" />
          </mxGeometry>
        </mxCell>
        <mxCell id="wpcL7Qo-BOGiDXtRRDBN-605" style="edgeStyle=orthogonalEdgeStyle;rounded=0;orthogonalLoop=1;jettySize=auto;html=1;entryX=0.5;entryY=1;entryDx=0;entryDy=0;strokeWidth=2;fillColor=#b0e3e6;strokeColor=#0e8088;" parent="1" source="wpcL7Qo-BOGiDXtRRDBN-598" target="wpcL7Qo-BOGiDXtRRDBN-17" edge="1">
          <mxGeometry relative="1" as="geometry">
            <mxPoint x="2628.000000000001" y="674.9999999999998" as="targetPoint" />
          </mxGeometry>
        </mxCell>
      </root>
    </mxGraphModel>
  </diagram>
</mxfile>
